{
  "source": "C:\\Users\\Peter\\Desktop\\stuff\\MIUN\\quantitative_research\\video_compression\\videos\\HEVC_CLASS_B\\BasketballDrive_1920x1080_50.y4m",
  "output": "C:\\Users\\Peter\\Desktop\\stuff\\MIUN\\quantitative_research\\video_compression\\compressed_videos\\HEVC_CLASS_B\\av1\\2.5\\BasketballDrive_1920x1080_50_av1.mkv",
  "codec": "av1",
  "ok": "Input #0, yuv4mpegpipe, from 'C:\\Users\\Peter\\Desktop\\stuff\\MIUN\\quantitative_research\\video_compression\\videos\\HEVC_CLASS_B\\BasketballDrive_1920x1080_50.y4m':\n  Duration: 00:00:10.00, start: 0.000000, bitrate: 1244162 kb/s\n  Stream #0:0: Video: rawvideo (I420 / 0x30323449), yuv420p(progressive), 1920x1080, 50 fps, 50 tbr, 50 tbn\n[out#0/matroska @ 0000025f92469c40] Codec AVOption b:a (set bitrate (in bits/s)) has not been used for any stream. The most likely reason is either wrong type (e.g. a video option with no video streams) or that it is a private option of some decoder which was not actually used for any stream.\nStream mapping:\n  Stream #0:0 -> #0:0 (rawvideo (native) -> av1 (libsvtav1))\nPress [q] to stop, [?] for help\nSvt[info]: -------------------------------------------\nSvt[info]: SVT [version]:\tSVT-AV1 Encoder Lib v3.1.0-19-g6ecfe8ec\nSvt[info]: SVT [build]  :\tGCC 15.2.0\t 64 bit\nSvt[info]: LIB Build date: Aug 17 2025 11:37:13\nSvt[info]: -------------------------------------------\n[libsvtav1 @ 0000025f9246c100] Specified chroma sample location center is unsupported on the AV1 bit stream level. Usage of a container that allows passing this information - such as Matroska - is recommended.\nSvt[info]: Level of Parallelism: 5\nSvt[info]: Number of PPCS 93\nSvt[info]: [asm level on system : up to avx2]\nSvt[info]: [asm level selected : up to avx2]\nSvt[info]: -------------------------------------------\nSvt[info]: SVT [config]: main profile\ttier (auto)\tlevel (auto)\nSvt[info]: SVT [config]: width / height / fps numerator / fps denominator \t\t: 1920 / 1080 / 50 / 1\nSvt[info]: SVT [config]: bit-depth / color format \t\t\t\t\t: 8 / YUV420\nSvt[info]: SVT [config]: preset / tune / pred struct \t\t\t\t\t: 4 / PSNR / random access\nSvt[info]: SVT [config]: gop size / mini-gop size / key-frame type \t\t\t: 321 / 16 / key frame\nSvt[info]: SVT [config]: BRC mode / target bitrate (kbps)\t\t\t\t: VBR / 2500 \nSvt[info]: SVT [config]: AQ mode / Variance Boost \t\t\t\t\t: 2 / 0\nSvt[info]: SVT [config]: sharpness / luminance-based QP bias \t\t\t\t: 0 / 0\nSvt[info]: SVT [config]: QP scale compress strength \t\t\t\t\t: 0\nSvt[info]: -------------------------------------------\nOutput #0, matroska, to 'C:\\Users\\Peter\\Desktop\\stuff\\MIUN\\quantitative_research\\video_compression\\compressed_videos\\HEVC_CLASS_B\\av1\\2.5\\BasketballDrive_1920x1080_50_av1.mkv':\n  Metadata:\n    encoder         : Lavf62.3.100\n  Stream #0:0: Video: av1 (AV01 / 0x31305641), yuv420p(tv, progressive), 1920x1080, q=2-31, 2500 kb/s, 50 fps, 1k tbn\n    Metadata:\n      encoder         : Lavc62.11.100 libsvtav1\n    Side data:\n      cpb: bitrate max/min/avg: 0/0/2500000 buffer size: 2500000 vbv_delay: N/A\nframe=    0 fps=0.0 q=0.0 size=       0KiB time=N/A bitrate=N/A speed=N/A elapsed=0:00:00.52    \nframe=    0 fps=0.0 q=0.0 size=       0KiB time=N/A bitrate=N/A speed=N/A elapsed=0:00:01.31    \nframe=    0 fps=0.0 q=0.0 size=       0KiB time=N/A bitrate=N/A speed=N/A elapsed=0:00:02.12    \nframe=    0 fps=0.0 q=0.0 size=       0KiB time=N/A bitrate=N/A speed=N/A elapsed=0:00:02.67    \nframe=    0 fps=0.0 q=0.0 size=       0KiB time=N/A bitrate=N/A speed=N/A elapsed=0:00:03.19    \nframe=    0 fps=0.0 q=0.0 size=       0KiB time=N/A bitrate=N/A speed=N/A elapsed=0:00:03.71    \nframe=    0 fps=0.0 q=0.0 size=       0KiB time=N/A bitrate=N/A speed=N/A elapsed=0:00:04.25    \nframe=    0 fps=0.0 q=0.0 size=       0KiB time=N/A bitrate=N/A speed=N/A elapsed=0:00:04.79    \nframe=    0 fps=0.0 q=0.0 size=       0KiB time=N/A bitrate=N/A speed=N/A elapsed=0:00:05.35    \nframe=    0 fps=0.0 q=0.0 size=       0KiB time=N/A bitrate=N/A speed=N/A elapsed=0:00:05.94    \nframe=    0 fps=0.0 q=0.0 size=       0KiB time=N/A bitrate=N/A speed=N/A elapsed=0:00:06.58    \nframe=    0 fps=0.0 q=0.0 size=       0KiB time=N/A bitrate=N/A speed=N/A elapsed=0:00:07.99    \nframe=    0 fps=0.0 q=0.0 size=       0KiB time=N/A bitrate=N/A speed=N/A elapsed=0:00:09.26    \nframe=    0 fps=0.0 q=0.0 size=       0KiB time=N/A bitrate=N/A speed=N/A elapsed=0:00:10.11    \nframe=    0 fps=0.0 q=0.0 size=       0KiB time=N/A bitrate=N/A speed=N/A elapsed=0:00:10.84    \nframe=    0 fps=0.0 q=0.0 size=       0KiB time=N/A bitrate=N/A speed=N/A elapsed=0:00:11.54    \nframe=    0 fps=0.0 q=0.0 size=       0KiB time=N/A bitrate=N/A speed=N/A elapsed=0:00:12.29    \nframe=    0 fps=0.0 q=0.0 size=       0KiB time=N/A bitrate=N/A speed=N/A elapsed=0:00:13.08    \nframe=    1 fps=0.1 q=25.0 size=       1KiB time=00:00:00.00 bitrate=N/A speed=   0x elapsed=0:00:13.82    \nframe=    1 fps=0.1 q=25.0 size=       1KiB time=00:00:00.00 bitrate=N/A speed=   0x elapsed=0:00:14.45    \nframe=    1 fps=0.1 q=25.0 size=       1KiB time=00:00:00.00 bitrate=N/A speed=   0x elapsed=0:00:14.97    \nframe=    1 fps=0.1 q=25.0 size=       1KiB time=00:00:00.00 bitrate=N/A speed=   0x elapsed=0:00:15.49    \nframe=    1 fps=0.1 q=25.0 size=       1KiB time=00:00:00.00 bitrate=N/A speed=   0x elapsed=0:00:16.01    \nframe=    1 fps=0.1 q=25.0 size=       1KiB time=00:00:00.00 bitrate=N/A speed=   0x elapsed=0:00:16.54    \nframe=    1 fps=0.1 q=25.0 size=       1KiB time=00:00:00.00 bitrate=N/A speed=   0x elapsed=0:00:17.05    \nframe=    1 fps=0.1 q=25.0 size=       1KiB time=00:00:00.00 bitrate=N/A speed=   0x elapsed=0:00:17.57    \nframe=    1 fps=0.1 q=25.0 size=       1KiB time=00:00:00.00 bitrate=N/A speed=   0x elapsed=0:00:18.10    \nframe=    1 fps=0.1 q=25.0 size=       1KiB time=00:00:00.00 bitrate=N/A speed=   0x elapsed=0:00:18.62    \nframe=    1 fps=0.1 q=25.0 size=       1KiB time=00:00:00.00 bitrate=N/A speed=   0x elapsed=0:00:19.16    \nframe=    1 fps=0.1 q=25.0 size=       1KiB time=00:00:00.00 bitrate=N/A speed=   0x elapsed=0:00:19.70    \nframe=    1 fps=0.0 q=25.0 size=       1KiB time=00:00:00.00 bitrate=N/A speed=   0x elapsed=0:00:20.25    \nframe=    2 fps=0.1 q=50.0 size=       1KiB time=00:00:00.02 bitrate= 224.8kbits/s speed=0.000962x elapsed=0:00:20.79    \nframe=    4 fps=0.2 q=50.0 size=       1KiB time=00:00:00.06 bitrate=  74.9kbits/s speed=0.00281x elapsed=0:00:21.32    \nframe=    4 fps=0.2 q=50.0 size=       1KiB time=00:00:00.06 bitrate=  74.9kbits/s speed=0.00274x elapsed=0:00:21.89    \nframe=    5 fps=0.2 q=44.0 size=       1KiB time=00:00:00.08 bitrate=  56.2kbits/s speed=0.00357x elapsed=0:00:22.40    \nframe=    5 fps=0.2 q=44.0 size=       1KiB time=00:00:00.08 bitrate=  56.2kbits/s speed=0.00349x elapsed=0:00:22.93    \nframe=    6 fps=0.3 q=50.0 size=       1KiB time=00:00:00.10 bitrate=  45.0kbits/s speed=0.00426x elapsed=0:00:23.45    \nframe=    7 fps=0.3 q=46.0 size=       1KiB time=00:00:00.12 bitrate=  37.5kbits/s speed=0.005x elapsed=0:00:23.98    \nframe=    7 fps=0.3 q=46.0 size=       1KiB time=00:00:00.12 bitrate=  37.5kbits/s speed=0.0049x elapsed=0:00:24.50    \nframe=    8 fps=0.3 q=47.0 size=       1KiB time=00:00:00.12 bitrate=  37.5kbits/s speed=0.00479x elapsed=0:00:25.04    \nframe=    8 fps=0.3 q=47.0 size=       1KiB time=00:00:00.14 bitrate=  32.1kbits/s speed=0.00546x elapsed=0:00:25.66    \nframe=    8 fps=0.3 q=47.0 size=       1KiB time=00:00:00.14 bitrate=  32.1kbits/s speed=0.00534x elapsed=0:00:26.19    \nframe=    9 fps=0.3 q=40.0 size=       1KiB time=00:00:00.16 bitrate=  28.1kbits/s speed=0.00598x elapsed=0:00:26.75    \nframe=   10 fps=0.4 q=46.0 size=       1KiB time=00:00:00.18 bitrate=  25.0kbits/s speed=0.0066x elapsed=0:00:27.28    \nframe=   11 fps=0.4 q=45.0 size=       1KiB time=00:00:00.20 bitrate=  22.5kbits/s speed=0.00719x elapsed=0:00:27.81    \nframe=   12 fps=0.4 q=44.0 size=       1KiB time=00:00:00.22 bitrate=  20.4kbits/s speed=0.00776x elapsed=0:00:28.36    \nframe=   13 fps=0.4 q=43.0 size=       1KiB time=00:00:00.22 bitrate=  20.4kbits/s speed=0.00761x elapsed=0:00:28.89    \nframe=   14 fps=0.5 q=44.0 size=       1KiB time=00:00:00.26 bitrate=  17.3kbits/s speed=0.00882x elapsed=0:00:29.48    \nframe=   15 fps=0.5 q=46.0 size=       1KiB time=00:00:00.28 bitrate=  16.1kbits/s speed=0.00933x elapsed=0:00:30.00    \nframe=   16 fps=0.5 q=44.0 size=       1KiB time=00:00:00.28 bitrate=  16.1kbits/s speed=0.00917x elapsed=0:00:30.52    \nframe=   17 fps=0.5 q=28.0 size=       1KiB time=00:00:00.32 bitrate=  14.1kbits/s speed=0.0103x elapsed=0:00:31.10    \nframe=   17 fps=0.5 q=28.0 size=       1KiB time=00:00:00.32 bitrate=  14.1kbits/s speed=0.0101x elapsed=0:00:31.65    \nframe=   19 fps=0.6 q=46.0 size=       1KiB time=00:00:00.36 bitrate=  12.5kbits/s speed=0.0112x elapsed=0:00:32.21    \nframe=   20 fps=0.6 q=43.0 size=       1KiB time=00:00:00.38 bitrate=  11.8kbits/s speed=0.0116x elapsed=0:00:32.73    \nframe=   21 fps=0.6 q=45.0 size=       1KiB time=00:00:00.38 bitrate=  11.8kbits/s speed=0.0114x elapsed=0:00:33.24    \nframe=   22 fps=0.7 q=42.0 size=       1KiB time=00:00:00.42 bitrate=  10.7kbits/s speed=0.0124x elapsed=0:00:33.81    \nframe=   22 fps=0.6 q=42.0 size=       1KiB time=00:00:00.42 bitrate=  10.7kbits/s speed=0.0122x elapsed=0:00:34.39    \nframe=   22 fps=0.6 q=42.0 size=       1KiB time=00:00:00.42 bitrate=  10.7kbits/s speed=0.012x elapsed=0:00:34.98    \nframe=   23 fps=0.6 q=46.0 size=       1KiB time=00:00:00.44 bitrate=  10.2kbits/s speed=0.0124x elapsed=0:00:35.53    \nframe=   23 fps=0.6 q=46.0 size=       1KiB time=00:00:00.44 bitrate=  10.2kbits/s speed=0.0122x elapsed=0:00:36.06    \nframe=   24 fps=0.7 q=42.0 size=       1KiB time=00:00:00.46 bitrate=   9.8kbits/s speed=0.0126x elapsed=0:00:36.58    \nframe=   25 fps=0.7 q=42.0 size=       1KiB time=00:00:00.48 bitrate=   9.4kbits/s speed=0.0129x elapsed=0:00:37.14    \nframe=   27 fps=0.7 q=46.0 size=       1KiB time=00:00:00.52 bitrate=   8.6kbits/s speed=0.0138x elapsed=0:00:37.72    \nframe=   27 fps=0.7 q=46.0 size=       1KiB time=00:00:00.52 bitrate=   8.6kbits/s speed=0.0136x elapsed=0:00:38.26    \nframe=   28 fps=0.7 q=41.0 size=       1KiB time=00:00:00.54 bitrate=   8.3kbits/s speed=0.0139x elapsed=0:00:38.82    \nframe=   28 fps=0.7 q=41.0 size=       1KiB time=00:00:00.54 bitrate=   8.3kbits/s speed=0.0137x elapsed=0:00:39.42    \nframe=   30 fps=0.8 q=42.0 size=       1KiB time=00:00:00.58 bitrate=   7.8kbits/s speed=0.0145x elapsed=0:00:39.98    \nframe=   31 fps=0.8 q=46.0 size=       1KiB time=00:00:00.60 bitrate=   7.5kbits/s speed=0.0148x elapsed=0:00:40.53    \nframe=   32 fps=0.8 q=42.0 size=       1KiB time=00:00:00.62 bitrate=   7.3kbits/s speed=0.0151x elapsed=0:00:41.07    \nframe=   33 fps=0.8 q=31.0 size=       1KiB time=00:00:00.64 bitrate=   7.0kbits/s speed=0.0154x elapsed=0:00:41.59    \nframe=   34 fps=0.8 q=41.0 size=       1KiB time=00:00:00.66 bitrate=   6.8kbits/s speed=0.0157x elapsed=0:00:42.14    \nframe=   35 fps=0.8 q=47.0 size=       1KiB time=00:00:00.68 bitrate=   6.6kbits/s speed=0.0159x elapsed=0:00:42.67    \nframe=   35 fps=0.8 q=47.0 size=       1KiB time=00:00:00.68 bitrate=   6.6kbits/s speed=0.0157x elapsed=0:00:43.19    \nframe=   37 fps=0.8 q=45.0 size=       1KiB time=00:00:00.72 bitrate=   6.2kbits/s speed=0.0164x elapsed=0:00:43.79    \nframe=   37 fps=0.8 q=45.0 size=       1KiB time=00:00:00.72 bitrate=   6.2kbits/s speed=0.0162x elapsed=0:00:44.35    \nframe=   38 fps=0.8 q=43.0 size=       1KiB time=00:00:00.74 bitrate=   6.1kbits/s speed=0.0165x elapsed=0:00:44.90    \nframe=   38 fps=0.8 q=43.0 size=       1KiB time=00:00:00.74 bitrate=   6.1kbits/s speed=0.0163x elapsed=0:00:45.46    \nframe=   39 fps=0.8 q=47.0 size=       1KiB time=00:00:00.76 bitrate=   5.9kbits/s speed=0.0165x elapsed=0:00:46.02    \nframe=   39 fps=0.8 q=47.0 size=       1KiB time=00:00:00.76 bitrate=   5.9kbits/s speed=0.0163x elapsed=0:00:46.58    \nframe=   40 fps=0.8 q=43.0 size=       1KiB time=00:00:00.78 bitrate=   5.8kbits/s speed=0.0165x elapsed=0:00:47.13    \nframe=   41 fps=0.9 q=40.0 size=       1KiB time=00:00:00.80 bitrate=   5.6kbits/s speed=0.0168x elapsed=0:00:47.67    \nframe=   43 fps=0.9 q=46.0 size=       1KiB time=00:00:00.84 bitrate=   5.4kbits/s speed=0.0174x elapsed=0:00:48.22    \nframe=   43 fps=0.9 q=46.0 size=       1KiB time=00:00:00.84 bitrate=   5.4kbits/s speed=0.0172x elapsed=0:00:48.80    \nframe=   44 fps=0.9 q=43.0 size=       1KiB time=00:00:00.86 bitrate=   5.2kbits/s speed=0.0174x elapsed=0:00:49.33    \nframe=   44 fps=0.9 q=43.0 size=       1KiB time=00:00:00.86 bitrate=   5.2kbits/s speed=0.0172x elapsed=0:00:49.91    \nframe=   46 fps=0.9 q=44.0 size=       1KiB time=00:00:00.90 bitrate=   5.0kbits/s speed=0.0178x elapsed=0:00:50.46    \nframe=   46 fps=0.9 q=44.0 size=       1KiB time=00:00:00.90 bitrate=   5.0kbits/s speed=0.0176x elapsed=0:00:51.02    \nframe=   47 fps=0.9 q=45.0 size=       1KiB time=00:00:00.92 bitrate=   4.9kbits/s speed=0.0178x elapsed=0:00:51.62    \nframe=   48 fps=0.9 q=44.0 size=       1KiB time=00:00:00.94 bitrate=   4.8kbits/s speed=0.018x elapsed=0:00:52.16    \nframe=   49 fps=0.9 q=29.0 size=       1KiB time=00:00:00.94 bitrate=   4.8kbits/s speed=0.0178x elapsed=0:00:52.70    \nframe=   50 fps=0.9 q=44.0 size=       1KiB time=00:00:00.98 bitrate=   4.6kbits/s speed=0.0184x elapsed=0:00:53.26    \nframe=   51 fps=0.9 q=46.0 size=       1KiB time=00:00:01.00 bitrate=   4.5kbits/s speed=0.0186x elapsed=0:00:53.78    \nframe=   51 fps=0.9 q=46.0 size=       1KiB time=00:00:01.00 bitrate=   4.5kbits/s speed=0.0184x elapsed=0:00:54.33    \nframe=   52 fps=0.9 q=44.0 size=       1KiB time=00:00:01.02 bitrate=   4.4kbits/s speed=0.0186x elapsed=0:00:54.88    \nframe=   53 fps=1.0 q=44.0 size=       1KiB time=00:00:01.04 bitrate=   4.3kbits/s speed=0.0188x elapsed=0:00:55.41    \nframe=   54 fps=1.0 q=45.0 size=       1KiB time=00:00:01.06 bitrate=   4.2kbits/s speed=0.0189x elapsed=0:00:55.94    \nframe=   55 fps=1.0 q=44.0 size=       1KiB time=00:00:01.08 bitrate=   4.2kbits/s speed=0.0191x elapsed=0:00:56.45    \nframe=   55 fps=1.0 q=44.0 size=       1KiB time=00:00:01.08 bitrate=   4.2kbits/s speed=0.019x elapsed=0:00:56.98    \nframe=   55 fps=1.0 q=44.0 size=       1KiB time=00:00:01.08 bitrate=   4.2kbits/s speed=0.0188x elapsed=0:00:57.51    \nframe=   56 fps=1.0 q=45.0 size=       1KiB time=00:00:01.10 bitrate=   4.1kbits/s speed=0.019x elapsed=0:00:58.03    \nframe=   57 fps=1.0 q=38.0 size=       1KiB time=00:00:01.12 bitrate=   4.0kbits/s speed=0.0191x elapsed=0:00:58.56    \nframe=   59 fps=1.0 q=46.0 size=       1KiB time=00:00:01.16 bitrate=   3.9kbits/s speed=0.0196x elapsed=0:00:59.08    \nframe=   59 fps=1.0 q=46.0 size=       1KiB time=00:00:01.16 bitrate=   3.9kbits/s speed=0.0195x elapsed=0:00:59.62    \nframe=   60 fps=1.0 q=46.0 size=       1KiB time=00:00:01.18 bitrate=   3.8kbits/s speed=0.0196x elapsed=0:01:00.16    \nframe=   61 fps=1.0 q=43.0 size=       1KiB time=00:00:01.20 bitrate=   3.7kbits/s speed=0.0198x elapsed=0:01:00.71    \nframe=   62 fps=1.0 q=46.0 size=       1KiB time=00:00:01.20 bitrate=   3.7kbits/s speed=0.0196x elapsed=0:01:01.24    \nframe=   62 fps=1.0 q=46.0 size=       1KiB time=00:00:01.22 bitrate=   3.7kbits/s speed=0.0197x elapsed=0:01:01.82    \nframe=   63 fps=1.0 q=46.0 size=       1KiB time=00:00:01.24 bitrate=   3.6kbits/s speed=0.0199x elapsed=0:01:02.37    \nframe=   63 fps=1.0 q=46.0 size=       1KiB time=00:00:01.24 bitrate=   3.6kbits/s speed=0.0197x elapsed=0:01:02.94    \nframe=   64 fps=1.0 q=46.0 size=       1KiB time=00:00:01.26 bitrate=   3.6kbits/s speed=0.0198x elapsed=0:01:03.51    \nframe=   65 fps=1.0 q=25.0 size=       1KiB time=00:00:01.28 bitrate=   3.5kbits/s speed=0.02x elapsed=0:01:04.07    \nframe=   67 fps=1.0 q=46.0 size=       1KiB time=00:00:01.32 bitrate=   3.4kbits/s speed=0.0204x elapsed=0:01:04.60    \nframe=   67 fps=1.0 q=46.0 size=       1KiB time=00:00:01.32 bitrate=   3.4kbits/s speed=0.0203x elapsed=0:01:05.14    \nframe=   68 fps=1.0 q=47.0 size=       1KiB time=00:00:01.32 bitrate=   3.4kbits/s speed=0.0201x elapsed=0:01:05.69    \nframe=   68 fps=1.0 q=47.0 size=       1KiB time=00:00:01.34 bitrate=   3.4kbits/s speed=0.0202x elapsed=0:01:06.23    \nframe=   69 fps=1.0 q=44.0 size=       1KiB time=00:00:01.36 bitrate=   3.3kbits/s speed=0.0204x elapsed=0:01:06.76    \nframe=   69 fps=1.0 q=44.0 size=       1KiB time=00:00:01.36 bitrate=   3.3kbits/s speed=0.0202x elapsed=0:01:07.29    \nframe=   70 fps=1.0 q=46.0 size=       1KiB time=00:00:01.38 bitrate=   3.3kbits/s speed=0.0203x elapsed=0:01:07.81    \nframe=   70 fps=1.0 q=46.0 size=       1KiB time=00:00:01.38 bitrate=   3.3kbits/s speed=0.0202x elapsed=0:01:08.37    \nframe=   71 fps=1.0 q=44.0 size=       1KiB time=00:00:01.40 bitrate=   3.2kbits/s speed=0.0203x elapsed=0:01:08.89    \nframe=   71 fps=1.0 q=44.0 size=       1KiB time=00:00:01.40 bitrate=   3.2kbits/s speed=0.0202x elapsed=0:01:09.46    \nframe=   72 fps=1.0 q=46.0 size=       1KiB time=00:00:01.42 bitrate=   3.2kbits/s speed=0.0203x elapsed=0:01:09.98    \nframe=   72 fps=1.0 q=46.0 size=       1KiB time=00:00:01.42 bitrate=   3.2kbits/s speed=0.0201x elapsed=0:01:10.50    \nframe=   73 fps=1.0 q=39.0 size=       1KiB time=00:00:01.44 bitrate=   3.1kbits/s speed=0.0203x elapsed=0:01:11.03    \nframe=   74 fps=1.0 q=48.0 size=       1KiB time=00:00:01.46 bitrate=   3.1kbits/s speed=0.0204x elapsed=0:01:11.58    \nframe=   75 fps=1.0 q=46.0 size=       1KiB time=00:00:01.48 bitrate=   3.0kbits/s speed=0.0205x elapsed=0:01:12.13    \nframe=   75 fps=1.0 q=46.0 size=       1KiB time=00:00:01.48 bitrate=   3.0kbits/s speed=0.0204x elapsed=0:01:12.71    \nframe=   76 fps=1.0 q=48.0 size=       1KiB time=00:00:01.50 bitrate=   3.0kbits/s speed=0.0205x elapsed=0:01:13.27    \nframe=   77 fps=1.0 q=43.0 size=       1KiB time=00:00:01.52 bitrate=   3.0kbits/s speed=0.0206x elapsed=0:01:13.79    \nframe=   79 fps=1.1 q=45.0 size=       1KiB time=00:00:01.56 bitrate=   2.9kbits/s speed=0.021x elapsed=0:01:14.34    \nframe=   79 fps=1.1 q=45.0 size=       1KiB time=00:00:01.56 bitrate=   2.9kbits/s speed=0.0208x elapsed=0:01:14.89    \nframe=   81 fps=1.1 q=28.0 size=       1KiB time=00:00:01.60 bitrate=   2.8kbits/s speed=0.0212x elapsed=0:01:15.41    \nframe=   81 fps=1.1 q=28.0 size=       1KiB time=00:00:01.60 bitrate=   2.8kbits/s speed=0.0211x elapsed=0:01:15.93    \nframe=   82 fps=1.1 q=48.0 size=       1KiB time=00:00:01.62 bitrate=   2.8kbits/s speed=0.0212x elapsed=0:01:16.45    \nframe=   83 fps=1.1 q=47.0 size=       1KiB time=00:00:01.64 bitrate=   2.7kbits/s speed=0.0213x elapsed=0:01:16.98    \nframe=   83 fps=1.1 q=47.0 size=       1KiB time=00:00:01.64 bitrate=   2.7kbits/s speed=0.0212x elapsed=0:01:17.49    \nframe=   84 fps=1.1 q=48.0 size=       1KiB time=00:00:01.66 bitrate=   2.7kbits/s speed=0.0213x elapsed=0:01:18.02    \nframe=   85 fps=1.1 q=45.0 size=       1KiB time=00:00:01.68 bitrate=   2.7kbits/s speed=0.0214x elapsed=0:01:18.57    \nframe=   85 fps=1.1 q=45.0 size=       1KiB time=00:00:01.68 bitrate=   2.7kbits/s speed=0.0212x elapsed=0:01:19.11    \nframe=   86 fps=1.1 q=47.0 size=       1KiB time=00:00:01.70 bitrate=   2.6kbits/s speed=0.0213x elapsed=0:01:19.66    \nframe=   86 fps=1.1 q=47.0 size=       1KiB time=00:00:01.70 bitrate=   2.6kbits/s speed=0.0212x elapsed=0:01:20.18    \nframe=   86 fps=1.1 q=47.0 size=       1KiB time=00:00:01.70 bitrate=   2.6kbits/s speed=0.0211x elapsed=0:01:20.71    \nframe=   87 fps=1.1 q=44.0 size=       1KiB time=00:00:01.72 bitrate=   2.6kbits/s speed=0.0212x elapsed=0:01:21.24    \nframe=   87 fps=1.1 q=44.0 size=       1KiB time=00:00:01.72 bitrate=   2.6kbits/s speed=0.021x elapsed=0:01:21.77    \nframe=   88 fps=1.1 q=47.0 size=       1KiB time=00:00:01.74 bitrate=   2.6kbits/s speed=0.0211x elapsed=0:01:22.30    \nframe=   90 fps=1.1 q=48.0 size=       1KiB time=00:00:01.78 bitrate=   2.5kbits/s speed=0.0215x elapsed=0:01:22.83    \nframe=   90 fps=1.1 q=48.0 size=       1KiB time=00:00:01.78 bitrate=   2.5kbits/s speed=0.0214x elapsed=0:01:23.36    \nframe=   91 fps=1.1 q=46.0 size=       1KiB time=00:00:01.80 bitrate=   2.5kbits/s speed=0.0215x elapsed=0:01:23.87    \nframe=   92 fps=1.1 q=45.0 size=       1KiB time=00:00:01.82 bitrate=   2.5kbits/s speed=0.0216x elapsed=0:01:24.38    \nframe=   93 fps=1.1 q=43.0 size=       1KiB time=00:00:01.84 bitrate=   2.4kbits/s speed=0.0217x elapsed=0:01:24.92    \nframe=   93 fps=1.1 q=43.0 size=       1KiB time=00:00:01.84 bitrate=   2.4kbits/s speed=0.0215x elapsed=0:01:25.44    \nframe=   95 fps=1.1 q=45.0 size=       1KiB time=00:00:01.88 bitrate=   2.4kbits/s speed=0.0219x elapsed=0:01:25.97    \nframe=   95 fps=1.1 q=45.0 size=       1KiB time=00:00:01.88 bitrate=   2.4kbits/s speed=0.0217x elapsed=0:01:26.51    \nframe=   96 fps=1.1 q=48.0 size=       1KiB time=00:00:01.90 bitrate=   2.4kbits/s speed=0.0218x elapsed=0:01:27.06    \nframe=   97 fps=1.1 q=28.0 size=       1KiB time=00:00:01.92 bitrate=   2.3kbits/s speed=0.0219x elapsed=0:01:27.58    \nframe=   98 fps=1.1 q=49.0 size=       1KiB time=00:00:01.94 bitrate=   2.3kbits/s speed=0.022x elapsed=0:01:28.12    \nframe=   99 fps=1.1 q=48.0 size=       1KiB time=00:00:01.96 bitrate=   2.3kbits/s speed=0.0221x elapsed=0:01:28.64    \nframe=   99 fps=1.1 q=48.0 size=       1KiB time=00:00:01.96 bitrate=   2.3kbits/s speed=0.022x elapsed=0:01:29.16    \nframe=  100 fps=1.1 q=45.0 size=       1KiB time=00:00:01.98 bitrate=   2.3kbits/s speed=0.0221x elapsed=0:01:29.71    \nframe=  101 fps=1.1 q=45.0 size=       1KiB time=00:00:02.00 bitrate=   2.2kbits/s speed=0.0222x elapsed=0:01:30.23    \nframe=  102 fps=1.1 q=47.0 size=       1KiB time=00:00:02.02 bitrate=   2.2kbits/s speed=0.0223x elapsed=0:01:30.76    \nframe=  102 fps=1.1 q=47.0 size=       1KiB time=00:00:02.02 bitrate=   2.2kbits/s speed=0.0221x elapsed=0:01:31.29    \nframe=  103 fps=1.1 q=44.0 size=       1KiB time=00:00:02.04 bitrate=   2.2kbits/s speed=0.0222x elapsed=0:01:31.84    \nframe=  103 fps=1.1 q=44.0 size=       1KiB time=00:00:02.04 bitrate=   2.2kbits/s speed=0.0221x elapsed=0:01:32.38    \nframe=  104 fps=1.1 q=47.0 size=       1KiB time=00:00:02.06 bitrate=   2.2kbits/s speed=0.0222x elapsed=0:01:32.93    \nframe=  106 fps=1.1 q=49.0 size=       1KiB time=00:00:02.10 bitrate=   2.1kbits/s speed=0.0225x elapsed=0:01:33.47    \nframe=  107 fps=1.1 q=47.0 size=       1KiB time=00:00:02.12 bitrate=   2.1kbits/s speed=0.0225x elapsed=0:01:34.03    \nframe=  107 fps=1.1 q=47.0 size=       1KiB time=00:00:02.12 bitrate=   2.1kbits/s speed=0.0224x elapsed=0:01:34.54    \nframe=  107 fps=1.1 q=47.0 size=       1KiB time=00:00:02.12 bitrate=   2.1kbits/s speed=0.0223x elapsed=0:01:35.13    \nframe=  108 fps=1.1 q=49.0 size=       1KiB time=00:00:02.14 bitrate=   2.1kbits/s speed=0.0224x elapsed=0:01:35.70    \nframe=  109 fps=1.1 q=43.0 size=       1KiB time=00:00:02.16 bitrate=   2.1kbits/s speed=0.0224x elapsed=0:01:36.28    \nframe=  111 fps=1.1 q=46.0 size=       1KiB time=00:00:02.18 bitrate=   2.1kbits/s speed=0.0225x elapsed=0:01:36.86    \nframe=  111 fps=1.1 q=46.0 size=       1KiB time=00:00:02.20 bitrate=   2.0kbits/s speed=0.0226x elapsed=0:01:37.44    \nframe=  112 fps=1.1 q=48.0 size=       1KiB time=00:00:02.22 bitrate=   2.0kbits/s speed=0.0227x elapsed=0:01:38.01    \nframe=  114 fps=1.2 q=49.0 size=       1KiB time=00:00:02.26 bitrate=   2.0kbits/s speed=0.0229x elapsed=0:01:38.55    \nframe=  115 fps=1.2 q=48.0 size=       1KiB time=00:00:02.28 bitrate=   2.0kbits/s speed=0.023x elapsed=0:01:39.09    \nframe=  115 fps=1.2 q=48.0 size=       1KiB time=00:00:02.28 bitrate=   2.0kbits/s speed=0.0229x elapsed=0:01:39.61    \nframe=  116 fps=1.2 q=49.0 size=       1KiB time=00:00:02.30 bitrate=   2.0kbits/s speed=0.023x elapsed=0:01:40.13    \nframe=  117 fps=1.2 q=46.0 size=       1KiB time=00:00:02.32 bitrate=   1.9kbits/s speed=0.023x elapsed=0:01:40.66    \nframe=  118 fps=1.2 q=48.0 size=       1KiB time=00:00:02.34 bitrate=   1.9kbits/s speed=0.0231x elapsed=0:01:41.22    \nframe=  118 fps=1.2 q=48.0 size=       1KiB time=00:00:02.34 bitrate=   1.9kbits/s speed=0.023x elapsed=0:01:41.73    \nframe=  118 fps=1.2 q=48.0 size=       1KiB time=00:00:02.34 bitrate=   1.9kbits/s speed=0.0229x elapsed=0:01:42.25    \nframe=  119 fps=1.2 q=45.0 size=       1KiB time=00:00:02.36 bitrate=   1.9kbits/s speed=0.023x elapsed=0:01:42.78    \nframe=  119 fps=1.2 q=45.0 size=       1KiB time=00:00:02.36 bitrate=   1.9kbits/s speed=0.0228x elapsed=0:01:43.32    \nframe=  120 fps=1.2 q=48.0 size=       1KiB time=00:00:02.38 bitrate=   1.9kbits/s speed=0.0229x elapsed=0:01:43.84    \nframe=  122 fps=1.2 q=49.0 size=       1KiB time=00:00:02.42 bitrate=   1.9kbits/s speed=0.0232x elapsed=0:01:44.39    \nframe=  123 fps=1.2 q=47.0 size=       1KiB time=00:00:02.44 bitrate=   1.8kbits/s speed=0.0232x elapsed=0:01:44.96    \nframe=  123 fps=1.2 q=47.0 size=       1KiB time=00:00:02.44 bitrate=   1.8kbits/s speed=0.0231x elapsed=0:01:45.54    \nframe=  124 fps=1.2 q=48.0 size=       1KiB time=00:00:02.46 bitrate=   1.8kbits/s speed=0.0232x elapsed=0:01:46.16    \nframe=  125 fps=1.2 q=44.0 size=       1KiB time=00:00:02.48 bitrate=   1.8kbits/s speed=0.0232x elapsed=0:01:46.72    \nframe=  127 fps=1.2 q=47.0 size=       1KiB time=00:00:02.52 bitrate=   1.8kbits/s speed=0.0235x elapsed=0:01:47.27    \nframe=  127 fps=1.2 q=47.0 size=       1KiB time=00:00:02.52 bitrate=   1.8kbits/s speed=0.0234x elapsed=0:01:47.86    \nframe=  127 fps=1.2 q=47.0 size=       1KiB time=00:00:02.52 bitrate=   1.8kbits/s speed=0.0232x elapsed=0:01:48.41    \nframe=  128 fps=1.2 q=50.0 size=       1KiB time=00:00:02.54 bitrate=   1.8kbits/s speed=0.0233x elapsed=0:01:48.94    \nframe=  129 fps=1.2 q=31.0 size=       1KiB time=00:00:02.56 bitrate=   1.8kbits/s speed=0.0234x elapsed=0:01:49.54    \nframe=  130 fps=1.2 q=51.0 size=       1KiB time=00:00:02.58 bitrate=   1.7kbits/s speed=0.0234x elapsed=0:01:50.08    \nframe=  131 fps=1.2 q=49.0 size=       1KiB time=00:00:02.60 bitrate=   1.7kbits/s speed=0.0235x elapsed=0:01:50.59    \nframe=  131 fps=1.2 q=49.0 size=       1KiB time=00:00:02.60 bitrate=   1.7kbits/s speed=0.0234x elapsed=0:01:51.12    \nframe=  132 fps=1.2 q=51.0 size=       1KiB time=00:00:02.62 bitrate=   1.7kbits/s speed=0.0235x elapsed=0:01:51.66    \nframe=  133 fps=1.2 q=47.0 size=       1KiB time=00:00:02.64 bitrate=   1.7kbits/s speed=0.0235x elapsed=0:01:52.20    \nframe=  134 fps=1.2 q=51.0 size=       1KiB time=00:00:02.66 bitrate=   1.7kbits/s speed=0.0236x elapsed=0:01:52.84    \nframe=  135 fps=1.2 q=45.0 size=       1KiB time=00:00:02.66 bitrate=   1.7kbits/s speed=0.0234x elapsed=0:01:53.65    \nframe=  136 fps=1.2 q=51.0 size=       1KiB time=00:00:02.68 bitrate=   1.7kbits/s speed=0.0234x elapsed=0:01:54.44    \nframe=  137 fps=1.2 q=43.0 size=       1KiB time=00:00:02.72 bitrate=   1.7kbits/s speed=0.0236x elapsed=0:01:55.19    \nframe=  139 fps=1.2 q=48.0 size=       1KiB time=00:00:02.76 bitrate=   1.6kbits/s speed=0.0239x elapsed=0:01:55.71    \nframe=  139 fps=1.2 q=48.0 size=       1KiB time=00:00:02.76 bitrate=   1.6kbits/s speed=0.0237x elapsed=0:01:56.31    \nframe=  140 fps=1.2 q=51.0 size=       1KiB time=00:00:02.78 bitrate=   1.6kbits/s speed=0.0238x elapsed=0:01:56.85    \nframe=  140 fps=1.2 q=51.0 size=       1KiB time=00:00:02.78 bitrate=   1.6kbits/s speed=0.0237x elapsed=0:01:57.39    \nframe=  141 fps=1.2 q=44.0 size=       1KiB time=00:00:02.80 bitrate=   1.6kbits/s speed=0.0237x elapsed=0:01:57.98    \nframe=  143 fps=1.2 q=48.0 size=       1KiB time=00:00:02.82 bitrate=   1.6kbits/s speed=0.0238x elapsed=0:01:58.59    \nframe=  143 fps=1.2 q=48.0 size=       1KiB time=00:00:02.84 bitrate=   1.6kbits/s speed=0.0238x elapsed=0:01:59.18    \nframe=  144 fps=1.2 q=52.0 size=       1KiB time=00:00:02.86 bitrate=   1.6kbits/s speed=0.0239x elapsed=0:01:59.73    \nframe=  145 fps=1.2 q=32.0 size=       1KiB time=00:00:02.88 bitrate=   1.6kbits/s speed=0.0239x elapsed=0:02:00.34    \nframe=  146 fps=1.2 q=52.0 size=       1KiB time=00:00:02.90 bitrate=   1.6kbits/s speed=0.024x elapsed=0:02:00.89    \nframe=  148 fps=1.2 q=52.0 size=       1KiB time=00:00:02.92 bitrate=   1.5kbits/s speed=0.024x elapsed=0:02:01.49    \nframe=  149 fps=1.2 q=48.0 size=       1KiB time=00:00:02.96 bitrate=   1.5kbits/s speed=0.0242x elapsed=0:02:02.10    \nframe=  150 fps=1.2 q=52.0 size=       1KiB time=00:00:02.98 bitrate=   1.5kbits/s speed=0.0243x elapsed=0:02:02.66    \nframe=  150 fps=1.2 q=52.0 size=       1KiB time=00:00:02.98 bitrate=   1.5kbits/s speed=0.0242x elapsed=0:02:03.30    \nframe=  151 fps=1.2 q=50.0 size=       1KiB time=00:00:03.00 bitrate=   1.5kbits/s speed=0.0242x elapsed=0:02:03.84    \nframe=  151 fps=1.2 q=50.0 size=       1KiB time=00:00:03.00 bitrate=   1.5kbits/s speed=0.0241x elapsed=0:02:04.44    \nframe=  152 fps=1.2 q=52.0 size=       1KiB time=00:00:03.02 bitrate=   1.5kbits/s speed=0.0241x elapsed=0:02:05.07    \nframe=  154 fps=1.2 q=52.0 size=       1KiB time=00:00:03.06 bitrate=   1.5kbits/s speed=0.0244x elapsed=0:02:05.59    \nframe=  155 fps=1.2 q=49.0 size=       1KiB time=00:00:03.08 bitrate=   1.5kbits/s speed=0.0244x elapsed=0:02:06.12    \nframe=  156 fps=1.2 q=52.0 size=       1KiB time=00:00:03.10 bitrate=   1.5kbits/s speed=0.0245x elapsed=0:02:06.63    \nframe=  156 fps=1.2 q=52.0 size=       1KiB time=00:00:03.10 bitrate=   1.5kbits/s speed=0.0244x elapsed=0:02:07.14    \nframe=  157 fps=1.2 q=45.0 size=       1KiB time=00:00:03.12 bitrate=   1.4kbits/s speed=0.0244x elapsed=0:02:07.65    \nframe=  159 fps=1.2 q=48.0 size=       1KiB time=00:00:03.16 bitrate=   1.4kbits/s speed=0.0247x elapsed=0:02:08.17    \nframe=  160 fps=1.2 q=51.0 size=       1KiB time=00:00:03.18 bitrate=   1.4kbits/s speed=0.0247x elapsed=0:02:08.68    \nframe=  161 fps=1.2 q=31.0 size=       1KiB time=00:00:03.20 bitrate=   1.4kbits/s speed=0.0248x elapsed=0:02:09.21    \nframe=  161 fps=1.2 q=31.0 size=       1KiB time=00:00:03.20 bitrate=   1.4kbits/s speed=0.0247x elapsed=0:02:09.72    \nframe=  163 fps=1.3 q=50.0 size=       1KiB time=00:00:03.24 bitrate=   1.4kbits/s speed=0.0249x elapsed=0:02:10.23    \nframe=  163 fps=1.2 q=50.0 size=       1KiB time=00:00:03.24 bitrate=   1.4kbits/s speed=0.0248x elapsed=0:02:10.75    \nframe=  164 fps=1.2 q=51.0 size=       1KiB time=00:00:03.26 bitrate=   1.4kbits/s speed=0.0248x elapsed=0:02:11.26    \nframe=  165 fps=1.3 q=48.0 size=       1KiB time=00:00:03.28 bitrate=   1.4kbits/s speed=0.0249x elapsed=0:02:11.78    \nframe=  166 fps=1.3 q=51.0 size=       1KiB time=00:00:03.30 bitrate=   1.4kbits/s speed=0.0249x elapsed=0:02:12.30    \nframe=  166 fps=1.2 q=51.0 size=       1KiB time=00:00:03.30 bitrate=   1.4kbits/s speed=0.0248x elapsed=0:02:12.81    \nframe=  166 fps=1.2 q=51.0 size=       1KiB time=00:00:03.30 bitrate=   1.4kbits/s speed=0.0248x elapsed=0:02:13.33    \nframe=  167 fps=1.2 q=50.0 size=       1KiB time=00:00:03.32 bitrate=   1.4kbits/s speed=0.0248x elapsed=0:02:13.84    \nframe=  167 fps=1.2 q=50.0 size=       1KiB time=00:00:03.32 bitrate=   1.4kbits/s speed=0.0247x elapsed=0:02:14.36    \nframe=  168 fps=1.2 q=51.0 size=       1KiB time=00:00:03.34 bitrate=   1.3kbits/s speed=0.0248x elapsed=0:02:14.87    \nframe=  170 fps=1.3 q=51.0 size=       1KiB time=00:00:03.38 bitrate=   1.3kbits/s speed=0.025x elapsed=0:02:15.39    \nframe=  171 fps=1.3 q=48.0 size=       1KiB time=00:00:03.40 bitrate=   1.3kbits/s speed=0.025x elapsed=0:02:15.90    \nframe=  172 fps=1.3 q=50.0 size=       1KiB time=00:00:03.42 bitrate=   1.3kbits/s speed=0.0251x elapsed=0:02:16.41    \nframe=  173 fps=1.3 q=44.0 size=       1KiB time=00:00:03.44 bitrate=   1.3kbits/s speed=0.0251x elapsed=0:02:16.93    \nframe=  176 fps=1.3 q=50.0 size=       1KiB time=00:00:03.50 bitrate=   1.3kbits/s speed=0.0255x elapsed=0:02:17.45    \nframe=  176 fps=1.3 q=50.0 size=       1KiB time=00:00:03.50 bitrate=   1.3kbits/s speed=0.0254x elapsed=0:02:17.96    \nframe=  178 fps=1.3 q=50.0 size=       1KiB time=00:00:03.54 bitrate=   1.3kbits/s speed=0.0256x elapsed=0:02:18.48    \nframe=  179 fps=1.3 q=49.0 size=       1KiB time=00:00:03.56 bitrate=   1.3kbits/s speed=0.0256x elapsed=0:02:19.01    \nframe=  179 fps=1.3 q=49.0 size=       1KiB time=00:00:03.56 bitrate=   1.3kbits/s speed=0.0255x elapsed=0:02:19.52    \nframe=  180 fps=1.3 q=50.0 size=       1KiB time=00:00:03.58 bitrate=   1.3kbits/s speed=0.0256x elapsed=0:02:20.05    \nframe=  181 fps=1.3 q=47.0 size=       1KiB time=00:00:03.60 bitrate=   1.2kbits/s speed=0.0256x elapsed=0:02:20.56    \nframe=  182 fps=1.3 q=50.0 size=       1KiB time=00:00:03.62 bitrate=   1.2kbits/s speed=0.0257x elapsed=0:02:21.08    \nframe=  182 fps=1.3 q=50.0 size=       1KiB time=00:00:03.62 bitrate=   1.2kbits/s speed=0.0256x elapsed=0:02:21.60    \nframe=  183 fps=1.3 q=49.0 size=       1KiB time=00:00:03.64 bitrate=   1.2kbits/s speed=0.0256x elapsed=0:02:22.11    \nframe=  183 fps=1.3 q=49.0 size=       1KiB time=00:00:03.64 bitrate=   1.2kbits/s speed=0.0255x elapsed=0:02:22.63    \nframe=  183 fps=1.3 q=49.0 size=       1KiB time=00:00:03.64 bitrate=   1.2kbits/s speed=0.0254x elapsed=0:02:23.14    \nframe=  184 fps=1.3 q=50.0 size=       1KiB time=00:00:03.66 bitrate=   1.2kbits/s speed=0.0255x elapsed=0:02:23.65    \nframe=  185 fps=1.3 q=44.0 size=       1KiB time=00:00:03.68 bitrate=   1.2kbits/s speed=0.0255x elapsed=0:02:24.17    \nframe=  186 fps=1.3 q=50.0 size=       1KiB time=00:00:03.70 bitrate=   1.2kbits/s speed=0.0256x elapsed=0:02:24.68    \nframe=  187 fps=1.3 q=47.0 size=       1KiB time=00:00:03.72 bitrate=   1.2kbits/s speed=0.0256x elapsed=0:02:25.20    \nframe=  187 fps=1.3 q=47.0 size=       1KiB time=00:00:03.72 bitrate=   1.2kbits/s speed=0.0255x elapsed=0:02:25.71    \nframe=  188 fps=1.3 q=50.0 size=       1KiB time=00:00:03.74 bitrate=   1.2kbits/s speed=0.0256x elapsed=0:02:26.23    \nframe=  189 fps=1.3 q=44.0 size=       1KiB time=00:00:03.76 bitrate=   1.2kbits/s speed=0.0256x elapsed=0:02:26.75    \nframe=  191 fps=1.3 q=47.0 size=       1KiB time=00:00:03.80 bitrate=   1.2kbits/s speed=0.0258x elapsed=0:02:27.26    \nframe=  193 fps=1.3 q=32.0 size=       1KiB time=00:00:03.84 bitrate=   1.2kbits/s speed=0.026x elapsed=0:02:27.78    \nframe=  195 fps=1.3 q=49.0 size=       1KiB time=00:00:03.88 bitrate=   1.2kbits/s speed=0.0262x elapsed=0:02:28.30    \nframe=  196 fps=1.3 q=50.0 size=       1KiB time=00:00:03.90 bitrate=   1.2kbits/s speed=0.0262x elapsed=0:02:28.81    \nframe=  197 fps=1.3 q=47.0 size=       1KiB time=00:00:03.92 bitrate=   1.1kbits/s speed=0.0262x elapsed=0:02:29.33    \nframe=  198 fps=1.3 q=50.0 size=       1KiB time=00:00:03.94 bitrate=   1.1kbits/s speed=0.0263x elapsed=0:02:29.84    \nframe=  198 fps=1.3 q=50.0 size=       1KiB time=00:00:03.94 bitrate=   1.1kbits/s speed=0.0262x elapsed=0:02:30.36    \nframe=  198 fps=1.3 q=50.0 size=       1KiB time=00:00:03.94 bitrate=   1.1kbits/s speed=0.0261x elapsed=0:02:30.87    \nframe=  199 fps=1.3 q=49.0 size=       1KiB time=00:00:03.96 bitrate=   1.1kbits/s speed=0.0262x elapsed=0:02:31.38    \nframe=  199 fps=1.3 q=49.0 size=       1KiB time=00:00:03.96 bitrate=   1.1kbits/s speed=0.0261x elapsed=0:02:31.91    \nframe=  200 fps=1.3 q=50.0 size=       1KiB time=00:00:03.98 bitrate=   1.1kbits/s speed=0.0261x elapsed=0:02:32.43    \nframe=  201 fps=1.3 q=43.0 size=       1KiB time=00:00:04.00 bitrate=   1.1kbits/s speed=0.0262x elapsed=0:02:32.94    \nframe=  202 fps=1.3 q=49.0 size=       1KiB time=00:00:04.02 bitrate=   1.1kbits/s speed=0.0262x elapsed=0:02:33.46    \nframe=  203 fps=1.3 q=47.0 size=       1KiB time=00:00:04.04 bitrate=   1.1kbits/s speed=0.0262x elapsed=0:02:33.97    \nframe=  203 fps=1.3 q=47.0 size=       1KiB time=00:00:04.04 bitrate=   1.1kbits/s speed=0.0262x elapsed=0:02:34.48    \nframe=  204 fps=1.3 q=49.0 size=       1KiB time=00:00:04.06 bitrate=   1.1kbits/s speed=0.0262x elapsed=0:02:35.00    \nframe=  204 fps=1.3 q=49.0 size=       1KiB time=00:00:04.06 bitrate=   1.1kbits/s speed=0.0261x elapsed=0:02:35.51    \nframe=  205 fps=1.3 q=43.0 size=       1KiB time=00:00:04.08 bitrate=   1.1kbits/s speed=0.0261x elapsed=0:02:36.03    \nframe=  207 fps=1.3 q=46.0 size=       1KiB time=00:00:04.12 bitrate=   1.1kbits/s speed=0.0263x elapsed=0:02:36.54    \nframe=  207 fps=1.3 q=46.0 size=       1KiB time=00:00:04.12 bitrate=   1.1kbits/s speed=0.0262x elapsed=0:02:37.06    \nframe=  209 fps=1.3 q=35.0 size=       1KiB time=00:00:04.16 bitrate=   1.1kbits/s speed=0.0264x elapsed=0:02:37.58    \nframe=  210 fps=1.3 q=49.0 size=       1KiB time=00:00:04.18 bitrate=   1.1kbits/s speed=0.0264x elapsed=0:02:38.09    \nframe=  211 fps=1.3 q=48.0 size=       1KiB time=00:00:04.20 bitrate=   1.1kbits/s speed=0.0265x elapsed=0:02:38.61    \nframe=  211 fps=1.3 q=48.0 size=       1KiB time=00:00:04.20 bitrate=   1.1kbits/s speed=0.0264x elapsed=0:02:39.14    \nframe=  212 fps=1.3 q=49.0 size=       1KiB time=00:00:04.22 bitrate=   1.1kbits/s speed=0.0264x elapsed=0:02:39.66    \nframe=  214 fps=1.3 q=49.0 size=       1KiB time=00:00:04.26 bitrate=   1.1kbits/s speed=0.0266x elapsed=0:02:40.19    \nframe=  214 fps=1.3 q=49.0 size=       1KiB time=00:00:04.26 bitrate=   1.1kbits/s speed=0.0265x elapsed=0:02:40.70    \nframe=  214 fps=1.3 q=49.0 size=       1KiB time=00:00:04.26 bitrate=   1.1kbits/s speed=0.0264x elapsed=0:02:41.22    \nframe=  215 fps=1.3 q=44.0 size=       1KiB time=00:00:04.28 bitrate=   1.1kbits/s speed=0.0265x elapsed=0:02:41.76    \nframe=  215 fps=1.3 q=44.0 size=       1KiB time=00:00:04.28 bitrate=   1.1kbits/s speed=0.0264x elapsed=0:02:42.33    \nframe=  215 fps=1.3 q=44.0 size=       1KiB time=00:00:04.28 bitrate=   1.1kbits/s speed=0.0263x elapsed=0:02:42.87    \nframe=  217 fps=1.3 q=43.0 size=       1KiB time=00:00:04.32 bitrate=   1.0kbits/s speed=0.0264x elapsed=0:02:43.38    \nframe=  218 fps=1.3 q=49.0 size=       1KiB time=00:00:04.34 bitrate=   1.0kbits/s speed=0.0265x elapsed=0:02:43.90    \nframe=  219 fps=1.3 q=46.0 size=       1KiB time=00:00:04.36 bitrate=   1.0kbits/s speed=0.0265x elapsed=0:02:44.42    \nframe=  219 fps=1.3 q=46.0 size=       1KiB time=00:00:04.36 bitrate=   1.0kbits/s speed=0.0264x elapsed=0:02:44.96    \nframe=  220 fps=1.3 q=49.0 size=       1KiB time=00:00:04.38 bitrate=   1.0kbits/s speed=0.0265x elapsed=0:02:45.48    \nframe=  224 fps=1.3 q=49.0 size=       1KiB time=00:00:04.44 bitrate=   1.0kbits/s speed=0.0267x elapsed=0:02:46.00    \nframe=  224 fps=1.3 q=49.0 size=       1KiB time=00:00:04.46 bitrate=   1.0kbits/s speed=0.0268x elapsed=0:02:46.57    \nframe=  225 fps=1.3 q=29.0 size=       1KiB time=00:00:04.48 bitrate=   1.0kbits/s speed=0.0268x elapsed=0:02:47.10    \nframe=  226 fps=1.3 q=49.0 size=       1KiB time=00:00:04.50 bitrate=   1.0kbits/s speed=0.0268x elapsed=0:02:47.63    \nframe=  227 fps=1.3 q=48.0 size=       1KiB time=00:00:04.52 bitrate=   1.0kbits/s speed=0.0269x elapsed=0:02:48.21    \nframe=  227 fps=1.3 q=48.0 size=       1KiB time=00:00:04.52 bitrate=   1.0kbits/s speed=0.0268x elapsed=0:02:48.75    \nframe=  228 fps=1.3 q=49.0 size=       1KiB time=00:00:04.54 bitrate=   1.0kbits/s speed=0.0268x elapsed=0:02:49.27    \nframe=  229 fps=1.3 q=46.0 size=       1KiB time=00:00:04.56 bitrate=   1.0kbits/s speed=0.0269x elapsed=0:02:49.80    \nframe=  230 fps=1.4 q=49.0 size=       1KiB time=00:00:04.58 bitrate=   1.0kbits/s speed=0.0269x elapsed=0:02:50.31    \nframe=  231 fps=1.4 q=48.0 size=       1KiB time=00:00:04.60 bitrate=   1.0kbits/s speed=0.0269x elapsed=0:02:50.83    \nframe=  231 fps=1.3 q=48.0 size=       1KiB time=00:00:04.60 bitrate=   1.0kbits/s speed=0.0268x elapsed=0:02:51.39    \nframe=  231 fps=1.3 q=48.0 size=       1KiB time=00:00:04.60 bitrate=   1.0kbits/s speed=0.0268x elapsed=0:02:51.94    \nframe=  234 fps=1.4 q=49.0 size=       1KiB time=00:00:04.66 bitrate=   1.0kbits/s speed=0.027x elapsed=0:02:52.46    \nframe=  235 fps=1.4 q=46.0 size=       1KiB time=00:00:04.68 bitrate=   1.0kbits/s speed=0.0271x elapsed=0:02:52.98    \nframe=  235 fps=1.4 q=46.0 size=       1KiB time=00:00:04.68 bitrate=   1.0kbits/s speed=0.027x elapsed=0:02:53.50    \nframe=  235 fps=1.4 q=46.0 size=       1KiB time=00:00:04.68 bitrate=   1.0kbits/s speed=0.0269x elapsed=0:02:54.04    \nframe=  236 fps=1.4 q=50.0 size=       1KiB time=00:00:04.70 bitrate=   1.0kbits/s speed=0.0269x elapsed=0:02:54.56    \nframe=  239 fps=1.4 q=46.0 size=       1KiB time=00:00:04.76 bitrate=   0.9kbits/s speed=0.0272x elapsed=0:02:55.07    \nframe=  240 fps=1.4 q=50.0 size=       1KiB time=00:00:04.78 bitrate=   0.9kbits/s speed=0.0272x elapsed=0:02:55.61    \nframe=  241 fps=1.4 q=31.0 size=       1KiB time=00:00:04.80 bitrate=   0.9kbits/s speed=0.0272x elapsed=0:02:56.15    \nframe=  243 fps=1.4 q=48.0 size=       1KiB time=00:00:04.84 bitrate=   0.9kbits/s speed=0.0274x elapsed=0:02:56.67    \nframe=  243 fps=1.4 q=48.0 size=       1KiB time=00:00:04.84 bitrate=   0.9kbits/s speed=0.0273x elapsed=0:02:57.19    \nframe=  244 fps=1.4 q=50.0 size=       1KiB time=00:00:04.86 bitrate=   0.9kbits/s speed=0.0273x elapsed=0:02:57.75    \nframe=  245 fps=1.4 q=46.0 size=       1KiB time=00:00:04.88 bitrate=   0.9kbits/s speed=0.0274x elapsed=0:02:58.31    \nframe=  246 fps=1.4 q=50.0 size=       1KiB time=00:00:04.90 bitrate=   0.9kbits/s speed=0.0274x elapsed=0:02:58.84    \nframe=  246 fps=1.4 q=50.0 size=       1KiB time=00:00:04.90 bitrate=   0.9kbits/s speed=0.0273x elapsed=0:02:59.44    \nframe=  247 fps=1.4 q=44.0 size=       1KiB time=00:00:04.92 bitrate=   0.9kbits/s speed=0.0273x elapsed=0:02:59.98    \nframe=  248 fps=1.4 q=50.0 size=       1KiB time=00:00:04.94 bitrate=   0.9kbits/s speed=0.0274x elapsed=0:03:00.60    \nframe=  250 fps=1.4 q=50.0 size=       1KiB time=00:00:04.98 bitrate=   0.9kbits/s speed=0.0275x elapsed=0:03:01.22    \nframe=  251 fps=1.4 q=47.0 size=       1KiB time=00:00:05.00 bitrate=   0.9kbits/s speed=0.0275x elapsed=0:03:01.78    \nframe=  251 fps=1.4 q=47.0 size=       1KiB time=00:00:05.00 bitrate=   0.9kbits/s speed=0.0274x elapsed=0:03:02.39    \nframe=  252 fps=1.4 q=51.0 size=       1KiB time=00:00:05.02 bitrate=   0.9kbits/s speed=0.0274x elapsed=0:03:02.98    \nframe=  253 fps=1.4 q=43.0 size=    1536KiB time=00:00:05.04 bitrate=2496.6kbits/s speed=0.0275x elapsed=0:03:03.54    \nframe=  255 fps=1.4 q=47.0 size=    1536KiB time=00:00:05.08 bitrate=2477.0kbits/s speed=0.0276x elapsed=0:03:04.10    \nframe=  256 fps=1.4 q=51.0 size=    1536KiB time=00:00:05.10 bitrate=2467.2kbits/s speed=0.0276x elapsed=0:03:04.76    \nframe=  258 fps=1.4 q=51.0 size=    1536KiB time=00:00:05.12 bitrate=2457.6kbits/s speed=0.0276x elapsed=0:03:05.32    \nframe=  259 fps=1.4 q=49.0 size=    1536KiB time=00:00:05.16 bitrate=2438.5kbits/s speed=0.0278x elapsed=0:03:05.88    \nframe=  259 fps=1.4 q=49.0 size=    1536KiB time=00:00:05.16 bitrate=2438.5kbits/s speed=0.0277x elapsed=0:03:06.43    \nframe=  260 fps=1.4 q=51.0 size=    1536KiB time=00:00:05.18 bitrate=2429.1kbits/s speed=0.0277x elapsed=0:03:07.06    \nframe=  262 fps=1.4 q=51.0 size=    1536KiB time=00:00:05.22 bitrate=2410.5kbits/s speed=0.0278x elapsed=0:03:07.58    \nframe=  262 fps=1.4 q=51.0 size=    1536KiB time=00:00:05.22 bitrate=2410.5kbits/s speed=0.0277x elapsed=0:03:08.15    \nframe=  263 fps=1.4 q=45.0 size=    1536KiB time=00:00:05.24 bitrate=2401.3kbits/s speed=0.0278x elapsed=0:03:08.78    \nframe=  264 fps=1.4 q=51.0 size=    1536KiB time=00:00:05.26 bitrate=2392.2kbits/s speed=0.0278x elapsed=0:03:09.35    \nframe=  266 fps=1.4 q=51.0 size=    1536KiB time=00:00:05.30 bitrate=2374.1kbits/s speed=0.0279x elapsed=0:03:09.97    \nframe=  267 fps=1.4 q=48.0 size=    1536KiB time=00:00:05.32 bitrate=2365.2kbits/s speed=0.0279x elapsed=0:03:10.59    \nframe=  268 fps=1.4 q=51.0 size=    1536KiB time=00:00:05.34 bitrate=2356.4kbits/s speed=0.0279x elapsed=0:03:11.11    \nframe=  270 fps=1.4 q=51.0 size=    1536KiB time=00:00:05.38 bitrate=2338.8kbits/s speed=0.0281x elapsed=0:03:11.66    \nframe=  271 fps=1.4 q=48.0 size=    1536KiB time=00:00:05.40 bitrate=2330.2kbits/s speed=0.0281x elapsed=0:03:12.19    \nframe=  273 fps=1.4 q=30.0 size=    1536KiB time=00:00:05.44 bitrate=2313.0kbits/s speed=0.0282x elapsed=0:03:12.71    \nframe=  274 fps=1.4 q=51.0 size=    1536KiB time=00:00:05.46 bitrate=2304.6kbits/s speed=0.0283x elapsed=0:03:13.23    \nframe=  274 fps=1.4 q=51.0 size=    1536KiB time=00:00:05.46 bitrate=2304.6kbits/s speed=0.0282x elapsed=0:03:13.76    \nframe=  275 fps=1.4 q=50.0 size=    1536KiB time=00:00:05.48 bitrate=2296.2kbits/s speed=0.0282x elapsed=0:03:14.29    \nframe=  276 fps=1.4 q=51.0 size=    1536KiB time=00:00:05.50 bitrate=2287.8kbits/s speed=0.0282x elapsed=0:03:14.82    \nframe=  277 fps=1.4 q=48.0 size=    1536KiB time=00:00:05.52 bitrate=2279.5kbits/s speed=0.0283x elapsed=0:03:15.37    \nframe=  278 fps=1.4 q=51.0 size=    1536KiB time=00:00:05.54 bitrate=2271.3kbits/s speed=0.0283x elapsed=0:03:15.90    \nframe=  278 fps=1.4 q=51.0 size=    1536KiB time=00:00:05.54 bitrate=2271.3kbits/s speed=0.0282x elapsed=0:03:16.42    \nframe=  278 fps=1.4 q=51.0 size=    1536KiB time=00:00:05.54 bitrate=2271.3kbits/s speed=0.0281x elapsed=0:03:16.96    \nframe=  279 fps=1.4 q=50.0 size=    1536KiB time=00:00:05.56 bitrate=2263.1kbits/s speed=0.0282x elapsed=0:03:17.48    \nframe=  279 fps=1.4 q=50.0 size=    1536KiB time=00:00:05.56 bitrate=2263.1kbits/s speed=0.0281x elapsed=0:03:18.00    \nframe=  280 fps=1.4 q=51.0 size=    1536KiB time=00:00:05.58 bitrate=2255.0kbits/s speed=0.0281x elapsed=0:03:18.54    \nframe=  282 fps=1.4 q=51.0 size=    1536KiB time=00:00:05.62 bitrate=2239.0kbits/s speed=0.0282x elapsed=0:03:19.05    \nframe=  283 fps=1.4 q=48.0 size=    1536KiB time=00:00:05.64 bitrate=2231.0kbits/s speed=0.0283x elapsed=0:03:19.56    \nframe=  283 fps=1.4 q=48.0 size=    1536KiB time=00:00:05.64 bitrate=2231.0kbits/s speed=0.0282x elapsed=0:03:20.10    \nframe=  284 fps=1.4 q=52.0 size=    1536KiB time=00:00:05.66 bitrate=2223.1kbits/s speed=0.0282x elapsed=0:03:20.81    \nframe=  286 fps=1.4 q=51.0 size=    1536KiB time=00:00:05.68 bitrate=2215.3kbits/s speed=0.0282x elapsed=0:03:21.39    \nframe=  287 fps=1.4 q=48.0 size=    1536KiB time=00:00:05.72 bitrate=2199.8kbits/s speed=0.0283x elapsed=0:03:21.96    \nframe=  288 fps=1.4 q=51.0 size=    1536KiB time=00:00:05.74 bitrate=2192.1kbits/s speed=0.0283x elapsed=0:03:22.51    \nframe=  290 fps=1.4 q=51.0 size=    1536KiB time=00:00:05.78 bitrate=2177.0kbits/s speed=0.0285x elapsed=0:03:23.05    \nframe=  292 fps=1.4 q=51.0 size=    1536KiB time=00:00:05.82 bitrate=2162.0kbits/s speed=0.0286x elapsed=0:03:23.57    \nframe=  293 fps=1.4 q=47.0 size=    1536KiB time=00:00:05.84 bitrate=2154.6kbits/s speed=0.0286x elapsed=0:03:24.08    \nframe=  293 fps=1.4 q=47.0 size=    1536KiB time=00:00:05.84 bitrate=2154.6kbits/s speed=0.0285x elapsed=0:03:24.64    \nframe=  294 fps=1.4 q=50.0 size=    1536KiB time=00:00:05.86 bitrate=2147.3kbits/s speed=0.0286x elapsed=0:03:25.18    \nframe=  296 fps=1.4 q=50.0 size=    1536KiB time=00:00:05.90 bitrate=2132.7kbits/s speed=0.0287x elapsed=0:03:25.71    \nframe=  296 fps=1.4 q=50.0 size=    1536KiB time=00:00:05.90 bitrate=2132.7kbits/s speed=0.0286x elapsed=0:03:26.27    \nframe=  296 fps=1.4 q=50.0 size=    1536KiB time=00:00:05.90 bitrate=2132.7kbits/s speed=0.0285x elapsed=0:03:26.84    \nframe=  297 fps=1.4 q=43.0 size=    1536KiB time=00:00:05.92 bitrate=2125.5kbits/s speed=0.0285x elapsed=0:03:27.39    \nframe=  297 fps=1.4 q=43.0 size=    1536KiB time=00:00:05.92 bitrate=2125.5kbits/s speed=0.0285x elapsed=0:03:27.91    \nframe=  298 fps=1.4 q=50.0 size=    1536KiB time=00:00:05.94 bitrate=2118.3kbits/s speed=0.0285x elapsed=0:03:28.50    \nframe=  300 fps=1.4 q=50.0 size=    1536KiB time=00:00:05.98 bitrate=2104.2kbits/s speed=0.0286x elapsed=0:03:29.15    \nframe=  301 fps=1.4 q=44.0 size=    1536KiB time=00:00:06.00 bitrate=2097.2kbits/s speed=0.0286x elapsed=0:03:29.65    \nframe=  303 fps=1.4 q=45.0 size=    1536KiB time=00:00:06.02 bitrate=2090.2kbits/s speed=0.0286x elapsed=0:03:30.29    \nframe=  305 fps=1.4 q=31.0 size=    1536KiB time=00:00:06.08 bitrate=2069.6kbits/s speed=0.0288x elapsed=0:03:31.20    \nframe=  305 fps=1.4 q=31.0 size=    1536KiB time=00:00:06.08 bitrate=2069.6kbits/s speed=0.0287x elapsed=0:03:32.14    \nframe=  308 fps=1.4 q=48.0 size=    1536KiB time=00:00:06.12 bitrate=2056.0kbits/s speed=0.0287x elapsed=0:03:33.07    \nframe=  309 fps=1.4 q=45.0 size=    1536KiB time=00:00:06.16 bitrate=2042.7kbits/s speed=0.0288x elapsed=0:03:33.97    \nframe=  309 fps=1.4 q=45.0 size=    1536KiB time=00:00:06.16 bitrate=2042.7kbits/s speed=0.0287x elapsed=0:03:34.89    \nframe=  310 fps=1.4 q=45.0 size=    1536KiB time=00:00:06.18 bitrate=2036.1kbits/s speed=0.0286x elapsed=0:03:35.75    \nframe=  313 fps=1.4 q=42.0 size=    1536KiB time=00:00:06.22 bitrate=2023.0kbits/s speed=0.0287x elapsed=0:03:36.90    \nframe=  313 fps=1.4 q=42.0 size=    1536KiB time=00:00:06.24 bitrate=2016.5kbits/s speed=0.0286x elapsed=0:03:37.87    \nframe=  313 fps=1.4 q=42.0 size=    1536KiB time=00:00:06.24 bitrate=2016.5kbits/s speed=0.0285x elapsed=0:03:38.72    \nframe=  313 fps=1.4 q=42.0 size=    1536KiB time=00:00:06.24 bitrate=2016.5kbits/s speed=0.0284x elapsed=0:03:39.66    \nframe=  314 fps=1.4 q=47.0 size=    1536KiB time=00:00:06.26 bitrate=2010.0kbits/s speed=0.0284x elapsed=0:03:40.68    \nframe=  315 fps=1.4 q=45.0 size=    1536KiB time=00:00:06.26 bitrate=2010.0kbits/s speed=0.0283x elapsed=0:03:41.23    \nframe=  316 fps=1.4 q=47.0 size=    1536KiB time=00:00:06.30 bitrate=1997.3kbits/s speed=0.0284x elapsed=0:03:41.82    \nframe=  316 fps=1.4 q=47.0 size=    1536KiB time=00:00:06.30 bitrate=1997.3kbits/s speed=0.0283x elapsed=0:03:42.38    \nframe=  317 fps=1.4 q=41.0 size=    1536KiB time=00:00:06.32 bitrate=1991.0kbits/s speed=0.0283x elapsed=0:03:42.92    \nframe=  318 fps=1.4 q=48.0 size=    1536KiB time=00:00:06.34 bitrate=1984.7kbits/s speed=0.0284x elapsed=0:03:43.47    \nframe=  320 fps=1.4 q=48.0 size=    1536KiB time=00:00:06.38 bitrate=1972.2kbits/s speed=0.0285x elapsed=0:03:43.99    \nframe=  322 fps=1.4 q=30.0 size=    1536KiB time=00:00:06.42 bitrate=1960.0kbits/s speed=0.0286x elapsed=0:03:44.51    \nframe=  323 fps=1.4 q=48.0 size=    1792KiB time=00:00:06.44 bitrate=2279.5kbits/s speed=0.0286x elapsed=0:03:45.07    \nframe=  323 fps=1.4 q=48.0 size=    1792KiB time=00:00:06.44 bitrate=2279.5kbits/s speed=0.0285x elapsed=0:03:45.60    \nframe=  324 fps=1.4 q=48.0 size=    1792KiB time=00:00:06.46 bitrate=2272.5kbits/s speed=0.0286x elapsed=0:03:46.13    \nframe=  324 fps=1.4 q=48.0 size=    1792KiB time=00:00:06.46 bitrate=2272.5kbits/s speed=0.0285x elapsed=0:03:46.65    \nframe=  325 fps=1.4 q=48.0 size=    1792KiB time=00:00:06.48 bitrate=2265.4kbits/s speed=0.0285x elapsed=0:03:47.23    \nframe=  325 fps=1.4 q=48.0 size=    1792KiB time=00:00:06.48 bitrate=2265.4kbits/s speed=0.0285x elapsed=0:03:47.76    \nframe=  326 fps=1.4 q=47.0 size=    1792KiB time=00:00:06.50 bitrate=2258.5kbits/s speed=0.0285x elapsed=0:03:48.38    \nframe=  328 fps=1.4 q=47.0 size=    1792KiB time=00:00:06.54 bitrate=2244.7kbits/s speed=0.0286x elapsed=0:03:48.92    \nframe=  328 fps=1.4 q=47.0 size=    1792KiB time=00:00:06.54 bitrate=2244.7kbits/s speed=0.0285x elapsed=0:03:49.44    \nframe=  329 fps=1.4 q=48.0 size=    1792KiB time=00:00:06.56 bitrate=2237.8kbits/s speed=0.0285x elapsed=0:03:49.97    \nframe=  330 fps=1.4 q=42.0 size=    1792KiB time=00:00:06.58 bitrate=2231.0kbits/s speed=0.0285x elapsed=0:03:50.67    \nframe=  332 fps=1.4 q=45.0 size=    1792KiB time=00:00:06.62 bitrate=2217.5kbits/s speed=0.0286x elapsed=0:03:51.22    \nframe=  333 fps=1.4 q=47.0 size=    1792KiB time=00:00:06.64 bitrate=2210.9kbits/s speed=0.0286x elapsed=0:03:51.82    \nframe=  334 fps=1.4 q=42.0 size=    1792KiB time=00:00:06.66 bitrate=2204.2kbits/s speed=0.0287x elapsed=0:03:52.32    \nframe=  335 fps=1.4 q=46.0 size=    1792KiB time=00:00:06.68 bitrate=2197.6kbits/s speed=0.0287x elapsed=0:03:52.92    \nframe=  336 fps=1.4 q=44.0 size=    1792KiB time=00:00:06.70 bitrate=2191.1kbits/s speed=0.0287x elapsed=0:03:53.46    \nframe=  338 fps=1.4 q=32.0 size=    1792KiB time=00:00:06.74 bitrate=2178.1kbits/s speed=0.0288x elapsed=0:03:54.02    \nframe=  339 fps=1.4 q=48.0 size=    1792KiB time=00:00:06.76 bitrate=2171.6kbits/s speed=0.0288x elapsed=0:03:54.55    \nframe=  339 fps=1.4 q=48.0 size=    1792KiB time=00:00:06.76 bitrate=2171.6kbits/s speed=0.0288x elapsed=0:03:55.11    \nframe=  339 fps=1.4 q=48.0 size=    1792KiB time=00:00:06.76 bitrate=2171.6kbits/s speed=0.0287x elapsed=0:03:55.62    \nframe=  340 fps=1.4 q=47.0 size=    1792KiB time=00:00:06.78 bitrate=2165.2kbits/s speed=0.0287x elapsed=0:03:56.17    \nframe=  340 fps=1.4 q=47.0 size=    1792KiB time=00:00:06.78 bitrate=2165.2kbits/s speed=0.0286x elapsed=0:03:56.71    \nframe=  341 fps=1.4 q=48.0 size=    1792KiB time=00:00:06.80 bitrate=2158.8kbits/s speed=0.0287x elapsed=0:03:57.25    \nframe=  342 fps=1.4 q=44.0 size=    1792KiB time=00:00:06.82 bitrate=2152.5kbits/s speed=0.0287x elapsed=0:03:57.77    \nframe=  344 fps=1.4 q=47.0 size=    1792KiB time=00:00:06.84 bitrate=2146.2kbits/s speed=0.0287x elapsed=0:03:58.31    \nframe=  344 fps=1.4 q=47.0 size=    1792KiB time=00:00:06.86 bitrate=2140.0kbits/s speed=0.0287x elapsed=0:03:58.89    \nframe=  345 fps=1.4 q=48.0 size=    1792KiB time=00:00:06.88 bitrate=2133.7kbits/s speed=0.0287x elapsed=0:03:59.42    \nframe=  345 fps=1.4 q=48.0 size=    1792KiB time=00:00:06.88 bitrate=2133.7kbits/s speed=0.0287x elapsed=0:03:59.98    \nframe=  347 fps=1.4 q=48.0 size=    1792KiB time=00:00:06.92 bitrate=2121.4kbits/s speed=0.0288x elapsed=0:04:00.50    \nframe=  347 fps=1.4 q=48.0 size=    1792KiB time=00:00:06.92 bitrate=2121.4kbits/s speed=0.0287x elapsed=0:04:01.07    \nframe=  348 fps=1.4 q=46.0 size=    1792KiB time=00:00:06.94 bitrate=2115.3kbits/s speed=0.0287x elapsed=0:04:01.61    \nframe=  349 fps=1.4 q=48.0 size=    1792KiB time=00:00:06.96 bitrate=2109.2kbits/s speed=0.0287x elapsed=0:04:02.18    \nframe=  350 fps=1.4 q=42.0 size=    1792KiB time=00:00:06.98 bitrate=2103.2kbits/s speed=0.0288x elapsed=0:04:02.70    \nframe=  351 fps=1.4 q=48.0 size=    1792KiB time=00:00:07.00 bitrate=2097.2kbits/s speed=0.0288x elapsed=0:04:03.23    \nframe=  353 fps=1.4 q=48.0 size=    1792KiB time=00:00:07.02 bitrate=2091.2kbits/s speed=0.0288x elapsed=0:04:03.78    \nframe=  354 fps=1.4 q=29.0 size=    1792KiB time=00:00:07.06 bitrate=2079.3kbits/s speed=0.0289x elapsed=0:04:04.35    \nframe=  355 fps=1.4 q=48.0 size=    1792KiB time=00:00:07.08 bitrate=2073.5kbits/s speed=0.0289x elapsed=0:04:04.87    \nframe=  355 fps=1.4 q=48.0 size=    1792KiB time=00:00:07.08 bitrate=2073.5kbits/s speed=0.0288x elapsed=0:04:05.42    \nframe=  356 fps=1.4 q=47.0 size=    1792KiB time=00:00:07.10 bitrate=2067.6kbits/s speed=0.0289x elapsed=0:04:05.94    \nframe=  357 fps=1.4 q=48.0 size=    1792KiB time=00:00:07.12 bitrate=2061.8kbits/s speed=0.0289x elapsed=0:04:06.47    \nframe=  359 fps=1.5 q=48.0 size=    1792KiB time=00:00:07.16 bitrate=2050.3kbits/s speed=0.029x elapsed=0:04:07.00    \nframe=  360 fps=1.5 q=47.0 size=    1792KiB time=00:00:07.18 bitrate=2044.6kbits/s speed=0.029x elapsed=0:04:07.55    \nframe=  362 fps=1.5 q=40.0 size=    1792KiB time=00:00:07.22 bitrate=2033.2kbits/s speed=0.0291x elapsed=0:04:08.08    \nframe=  363 fps=1.5 q=48.0 size=    1792KiB time=00:00:07.24 bitrate=2027.6kbits/s speed=0.0291x elapsed=0:04:08.61    \nframe=  364 fps=1.5 q=46.0 size=    1792KiB time=00:00:07.26 bitrate=2022.0kbits/s speed=0.0291x elapsed=0:04:09.16    \nframe=  367 fps=1.5 q=48.0 size=    1792KiB time=00:00:07.32 bitrate=2005.5kbits/s speed=0.0293x elapsed=0:04:09.70    \nframe=  367 fps=1.5 q=48.0 size=    1792KiB time=00:00:07.32 bitrate=2005.5kbits/s speed=0.0292x elapsed=0:04:10.28    \nframe=  368 fps=1.5 q=46.0 size=    1792KiB time=00:00:07.34 bitrate=2000.0kbits/s speed=0.0293x elapsed=0:04:10.83    \nframe=  370 fps=1.5 q=28.0 size=    1792KiB time=00:00:07.38 bitrate=1989.2kbits/s speed=0.0294x elapsed=0:04:11.37    \nframe=  370 fps=1.5 q=28.0 size=    1792KiB time=00:00:07.38 bitrate=1989.2kbits/s speed=0.0293x elapsed=0:04:11.89    \nframe=  371 fps=1.5 q=48.0 size=    1792KiB time=00:00:07.40 bitrate=1983.8kbits/s speed=0.0293x elapsed=0:04:12.43    \nframe=  372 fps=1.5 q=47.0 size=    1792KiB time=00:00:07.42 bitrate=1978.4kbits/s speed=0.0293x elapsed=0:04:12.95    \nframe=  372 fps=1.5 q=47.0 size=    1792KiB time=00:00:07.42 bitrate=1978.4kbits/s speed=0.0293x elapsed=0:04:13.52    \nframe=  373 fps=1.5 q=48.0 size=    1792KiB time=00:00:07.44 bitrate=1973.1kbits/s speed=0.0293x elapsed=0:04:14.10    \nframe=  375 fps=1.5 q=48.0 size=    1792KiB time=00:00:07.48 bitrate=1962.6kbits/s speed=0.0294x elapsed=0:04:14.65    \nframe=  376 fps=1.5 q=47.0 size=    1792KiB time=00:00:07.50 bitrate=1957.3kbits/s speed=0.0294x elapsed=0:04:15.15    \nframe=  376 fps=1.5 q=47.0 size=    1792KiB time=00:00:07.50 bitrate=1957.3kbits/s speed=0.0293x elapsed=0:04:15.72    \nframe=  377 fps=1.5 q=39.0 size=    1792KiB time=00:00:07.52 bitrate=1952.1kbits/s speed=0.0293x elapsed=0:04:16.24    \nframe=  377 fps=1.5 q=39.0 size=    1792KiB time=00:00:07.52 bitrate=1952.1kbits/s speed=0.0293x elapsed=0:04:16.76    \nframe=  379 fps=1.5 q=48.0 size=    1792KiB time=00:00:07.56 bitrate=1941.8kbits/s speed=0.0294x elapsed=0:04:17.38    \nframe=  380 fps=1.5 q=46.0 size=    1792KiB time=00:00:07.58 bitrate=1936.7kbits/s speed=0.0294x elapsed=0:04:17.90    \nframe=  381 fps=1.5 q=48.0 size=    1792KiB time=00:00:07.60 bitrate=1931.6kbits/s speed=0.0294x elapsed=0:04:18.44    \nframe=  382 fps=1.5 q=42.0 size=    1792KiB time=00:00:07.62 bitrate=1926.5kbits/s speed=0.0294x elapsed=0:04:18.98    \nframe=  406 fps=1.6 q=46.0 size=    1792KiB time=00:00:08.10 bitrate=1812.4kbits/s speed=0.0312x elapsed=0:04:19.52    \nframe=  406 fps=1.6 q=46.0 size=    1792KiB time=00:00:08.10 bitrate=1812.4kbits/s speed=0.0311x elapsed=0:04:20.08    \nframe=  406 fps=1.6 q=46.0 size=    1792KiB time=00:00:08.10 bitrate=1812.4kbits/s speed=0.0311x elapsed=0:04:20.60    \nframe=  406 fps=1.6 q=46.0 size=    1792KiB time=00:00:08.10 bitrate=1812.4kbits/s speed=0.031x elapsed=0:04:21.14    \nframe=  408 fps=1.6 q=45.0 size=    1792KiB time=00:00:08.14 bitrate=1803.4kbits/s speed=0.0311x elapsed=0:04:21.65    \nframe=  410 fps=1.6 q=41.0 size=    1792KiB time=00:00:08.18 bitrate=1794.6kbits/s speed=0.0312x elapsed=0:04:22.18    \nframe=  410 fps=1.6 q=41.0 size=    1792KiB time=00:00:08.18 bitrate=1794.6kbits/s speed=0.0311x elapsed=0:04:22.68    \nframe=  410 fps=1.6 q=41.0 size=    1792KiB time=00:00:08.18 bitrate=1794.6kbits/s speed=0.0311x elapsed=0:04:23.20    \nframe=  410 fps=1.6 q=41.0 size=    1792KiB time=00:00:08.18 bitrate=1794.6kbits/s speed=0.031x elapsed=0:04:23.72    \nframe=  410 fps=1.6 q=41.0 size=    1792KiB time=00:00:08.18 bitrate=1794.6kbits/s speed=0.031x elapsed=0:04:24.26    \nframe=  410 fps=1.5 q=41.0 size=    1792KiB time=00:00:08.18 bitrate=1794.6kbits/s speed=0.0309x elapsed=0:04:24.80    \nframe=  412 fps=1.6 q=47.0 size=    1792KiB time=00:00:08.22 bitrate=1785.9kbits/s speed=0.031x elapsed=0:04:25.33    \nframe=  414 fps=1.6 q=44.0 size=    1792KiB time=00:00:08.26 bitrate=1777.2kbits/s speed=0.0311x elapsed=0:04:25.87    \nframe=  414 fps=1.6 q=44.0 size=    1792KiB time=00:00:08.26 bitrate=1777.2kbits/s speed=0.031x elapsed=0:04:26.38    \nframe=  414 fps=1.6 q=44.0 size=    1792KiB time=00:00:08.26 bitrate=1777.2kbits/s speed=0.0309x elapsed=0:04:26.88    \nframe=  416 fps=1.6 q=46.0 size=    1792KiB time=00:00:08.30 bitrate=1768.7kbits/s speed=0.031x elapsed=0:04:27.42    \nframe=  418 fps=1.6 q=31.0 size=    1792KiB time=00:00:08.34 bitrate=1760.2kbits/s speed=0.0311x elapsed=0:04:27.96    \nframe=  418 fps=1.6 q=31.0 size=    1792KiB time=00:00:08.34 bitrate=1760.2kbits/s speed=0.0311x elapsed=0:04:28.54    \nframe=  418 fps=1.6 q=31.0 size=    1792KiB time=00:00:08.34 bitrate=1760.2kbits/s speed=0.031x elapsed=0:04:29.10    \nframe=  420 fps=1.6 q=48.0 size=    1792KiB time=00:00:08.38 bitrate=1751.8kbits/s speed=0.0311x elapsed=0:04:29.69    \nframe=  422 fps=1.6 q=46.0 size=    1792KiB time=00:00:08.42 bitrate=1743.5kbits/s speed=0.0312x elapsed=0:04:30.25    \nframe=  422 fps=1.6 q=46.0 size=    1792KiB time=00:00:08.42 bitrate=1743.5kbits/s speed=0.0311x elapsed=0:04:30.76    \nframe=  422 fps=1.6 q=46.0 size=    1792KiB time=00:00:08.42 bitrate=1743.5kbits/s speed=0.031x elapsed=0:04:31.33    \nframe=  424 fps=1.6 q=48.0 size=    1792KiB time=00:00:08.46 bitrate=1735.2kbits/s speed=0.0311x elapsed=0:04:31.87    \nframe=  426 fps=1.6 q=42.0 size=    1792KiB time=00:00:08.50 bitrate=1727.1kbits/s speed=0.0312x elapsed=0:04:32.41    \nframe=  426 fps=1.6 q=42.0 size=    1792KiB time=00:00:08.50 bitrate=1727.1kbits/s speed=0.0311x elapsed=0:04:32.96    \nframe=  426 fps=1.6 q=42.0 size=    1792KiB time=00:00:08.50 bitrate=1727.1kbits/s speed=0.0311x elapsed=0:04:33.49    \nframe=  426 fps=1.6 q=42.0 size=    1792KiB time=00:00:08.50 bitrate=1727.1kbits/s speed=0.031x elapsed=0:04:34.01    \nframe=  426 fps=1.6 q=42.0 size=    1792KiB time=00:00:08.50 bitrate=1727.1kbits/s speed=0.031x elapsed=0:04:34.57    \nframe=  426 fps=1.5 q=42.0 size=    1792KiB time=00:00:08.50 bitrate=1727.1kbits/s speed=0.0309x elapsed=0:04:35.10    \nframe=  428 fps=1.6 q=47.0 size=    1792KiB time=00:00:08.54 bitrate=1719.0kbits/s speed=0.031x elapsed=0:04:35.65    \nframe=  430 fps=1.6 q=43.0 size=    1792KiB time=00:00:08.58 bitrate=1711.0kbits/s speed=0.0311x elapsed=0:04:36.20    \nframe=  430 fps=1.6 q=43.0 size=    1792KiB time=00:00:08.58 bitrate=1711.0kbits/s speed=0.031x elapsed=0:04:36.75    \nframe=  430 fps=1.6 q=43.0 size=    1792KiB time=00:00:08.58 bitrate=1711.0kbits/s speed=0.0309x elapsed=0:04:37.28    \nframe=  432 fps=1.6 q=45.0 size=    1792KiB time=00:00:08.62 bitrate=1703.0kbits/s speed=0.031x elapsed=0:04:37.82    \nframe=  432 fps=1.6 q=45.0 size=    1792KiB time=00:00:08.62 bitrate=1703.0kbits/s speed=0.031x elapsed=0:04:38.34    \nframe=  434 fps=1.6 q=33.0 size=    1792KiB time=00:00:08.66 bitrate=1695.2kbits/s speed=0.031x elapsed=0:04:38.92    \nframe=  434 fps=1.6 q=33.0 size=    1792KiB time=00:00:08.66 bitrate=1695.2kbits/s speed=0.031x elapsed=0:04:39.45    \nframe=  434 fps=1.6 q=33.0 size=    1792KiB time=00:00:08.66 bitrate=1695.2kbits/s speed=0.0309x elapsed=0:04:39.97    \nframe=  436 fps=1.6 q=47.0 size=    1792KiB time=00:00:08.70 bitrate=1687.4kbits/s speed=0.031x elapsed=0:04:40.50    \nframe=  438 fps=1.6 q=45.0 size=    1792KiB time=00:00:08.74 bitrate=1679.6kbits/s speed=0.0311x elapsed=0:04:41.03    \nframe=  438 fps=1.6 q=45.0 size=    1792KiB time=00:00:08.74 bitrate=1679.6kbits/s speed=0.031x elapsed=0:04:41.58    \nframe=  438 fps=1.6 q=45.0 size=    1792KiB time=00:00:08.74 bitrate=1679.6kbits/s speed=0.031x elapsed=0:04:42.10    \nframe=  438 fps=1.5 q=45.0 size=    1792KiB time=00:00:08.74 bitrate=1679.6kbits/s speed=0.0309x elapsed=0:04:42.62    \nframe=  440 fps=1.6 q=43.0 size=    1792KiB time=00:00:08.78 bitrate=1672.0kbits/s speed=0.031x elapsed=0:04:43.17    \nframe=  440 fps=1.6 q=43.0 size=    1792KiB time=00:00:08.78 bitrate=1672.0kbits/s speed=0.0309x elapsed=0:04:43.73    \nframe=  442 fps=1.6 q=41.0 size=    1792KiB time=00:00:08.82 bitrate=1664.4kbits/s speed=0.031x elapsed=0:04:44.25    \nframe=  442 fps=1.6 q=41.0 size=    1792KiB time=00:00:08.82 bitrate=1664.4kbits/s speed=0.031x elapsed=0:04:44.79    \nframe=  442 fps=1.5 q=41.0 size=    1792KiB time=00:00:08.82 bitrate=1664.4kbits/s speed=0.0309x elapsed=0:04:45.30    \nframe=  442 fps=1.5 q=41.0 size=    1792KiB time=00:00:08.82 bitrate=1664.4kbits/s speed=0.0309x elapsed=0:04:45.84    \nframe=  442 fps=1.5 q=41.0 size=    1792KiB time=00:00:08.82 bitrate=1664.4kbits/s speed=0.0308x elapsed=0:04:46.35    \nframe=  442 fps=1.5 q=41.0 size=    1792KiB time=00:00:08.82 bitrate=1664.4kbits/s speed=0.0307x elapsed=0:04:46.87    \nframe=  442 fps=1.5 q=41.0 size=    1792KiB time=00:00:08.82 bitrate=1664.4kbits/s speed=0.0307x elapsed=0:04:47.39    \nframe=  444 fps=1.5 q=46.0 size=    1792KiB time=00:00:08.86 bitrate=1656.9kbits/s speed=0.0308x elapsed=0:04:47.94    \nframe=  446 fps=1.5 q=42.0 size=    1792KiB time=00:00:08.90 bitrate=1649.4kbits/s speed=0.0308x elapsed=0:04:48.50    \nframe=  446 fps=1.5 q=42.0 size=    1792KiB time=00:00:08.90 bitrate=1649.4kbits/s speed=0.0308x elapsed=0:04:49.04    \nframe=  446 fps=1.5 q=42.0 size=    1792KiB time=00:00:08.90 bitrate=1649.4kbits/s speed=0.0307x elapsed=0:04:49.65    \nframe=  446 fps=1.5 q=42.0 size=    1792KiB time=00:00:08.90 bitrate=1649.4kbits/s speed=0.0307x elapsed=0:04:50.16    \nframe=  448 fps=1.5 q=45.0 size=    1792KiB time=00:00:08.94 bitrate=1642.1kbits/s speed=0.0307x elapsed=0:04:50.74    \nframe=  450 fps=1.5 q=32.0 size=    1792KiB time=00:00:08.98 bitrate=1634.8kbits/s speed=0.0308x elapsed=0:04:51.24    \nframe=  450 fps=1.5 q=32.0 size=    1792KiB time=00:00:08.98 bitrate=1634.8kbits/s speed=0.0308x elapsed=0:04:51.76    \nframe=  450 fps=1.5 q=32.0 size=    1792KiB time=00:00:08.98 bitrate=1634.8kbits/s speed=0.0307x elapsed=0:04:52.28    \nframe=  452 fps=1.5 q=47.0 size=    1792KiB time=00:00:09.02 bitrate=1627.5kbits/s speed=0.0308x elapsed=0:04:52.81    \nframe=  454 fps=1.5 q=45.0 size=    1792KiB time=00:00:09.06 bitrate=1620.3kbits/s speed=0.0309x elapsed=0:04:53.34    \nframe=  454 fps=1.5 q=45.0 size=    1792KiB time=00:00:09.06 bitrate=1620.3kbits/s speed=0.0308x elapsed=0:04:53.91    \nframe=  456 fps=1.5 q=43.0 size=    1792KiB time=00:00:09.10 bitrate=1613.2kbits/s speed=0.0309x elapsed=0:04:54.47    \nframe=  456 fps=1.5 q=43.0 size=    1792KiB time=00:00:09.10 bitrate=1613.2kbits/s speed=0.0308x elapsed=0:04:55.02    \nframe=  458 fps=1.5 q=41.0 size=    1792KiB time=00:00:09.14 bitrate=1606.1kbits/s speed=0.0309x elapsed=0:04:55.54    \nframe=  458 fps=1.5 q=41.0 size=    1792KiB time=00:00:09.14 bitrate=1606.1kbits/s speed=0.0309x elapsed=0:04:56.07    \nframe=  458 fps=1.5 q=41.0 size=    1792KiB time=00:00:09.14 bitrate=1606.1kbits/s speed=0.0308x elapsed=0:04:56.60    \nframe=  458 fps=1.5 q=41.0 size=    1792KiB time=00:00:09.14 bitrate=1606.1kbits/s speed=0.0308x elapsed=0:04:57.13    \nframe=  460 fps=1.5 q=46.0 size=    1792KiB time=00:00:09.18 bitrate=1599.1kbits/s speed=0.0308x elapsed=0:04:57.67    \nframe=  462 fps=1.5 q=42.0 size=    1792KiB time=00:00:09.22 bitrate=1592.2kbits/s speed=0.0309x elapsed=0:04:58.18    \nframe=  462 fps=1.5 q=42.0 size=    1792KiB time=00:00:09.22 bitrate=1592.2kbits/s speed=0.0309x elapsed=0:04:58.71    \nframe=  462 fps=1.5 q=42.0 size=    1792KiB time=00:00:09.22 bitrate=1592.2kbits/s speed=0.0308x elapsed=0:04:59.29    \nframe=  464 fps=1.5 q=46.0 size=    1792KiB time=00:00:09.26 bitrate=1585.3kbits/s speed=0.0309x elapsed=0:04:59.87    \nframe=  466 fps=1.6 q=29.0 size=    1792KiB time=00:00:09.30 bitrate=1578.5kbits/s speed=0.031x elapsed=0:05:00.43    \nframe=  466 fps=1.5 q=29.0 size=    1792KiB time=00:00:09.30 bitrate=1578.5kbits/s speed=0.0309x elapsed=0:05:01.03    \nframe=  468 fps=1.6 q=47.0 size=    1792KiB time=00:00:09.34 bitrate=1571.7kbits/s speed=0.031x elapsed=0:05:01.57    \nframe=  470 fps=1.6 q=45.0 size=    1792KiB time=00:00:09.38 bitrate=1565.0kbits/s speed=0.031x elapsed=0:05:02.11    \nframe=  470 fps=1.6 q=45.0 size=    1792KiB time=00:00:09.38 bitrate=1565.0kbits/s speed=0.031x elapsed=0:05:02.65    \nframe=  470 fps=1.6 q=45.0 size=    1792KiB time=00:00:09.38 bitrate=1565.0kbits/s speed=0.0309x elapsed=0:05:03.19    \nframe=  470 fps=1.5 q=45.0 size=    1792KiB time=00:00:09.38 bitrate=1565.0kbits/s speed=0.0309x elapsed=0:05:03.72    \nframe=  472 fps=1.6 q=47.0 size=    1792KiB time=00:00:09.42 bitrate=1558.4kbits/s speed=0.031x elapsed=0:05:04.27    \nframe=  474 fps=1.6 q=41.0 size=    1792KiB time=00:00:09.46 bitrate=1551.8kbits/s speed=0.031x elapsed=0:05:04.80    \nframe=  474 fps=1.6 q=41.0 size=    1792KiB time=00:00:09.46 bitrate=1551.8kbits/s speed=0.031x elapsed=0:05:05.37    \nframe=  474 fps=1.5 q=41.0 size=    1792KiB time=00:00:09.46 bitrate=1551.8kbits/s speed=0.0309x elapsed=0:05:05.91    \nframe=  474 fps=1.5 q=41.0 size=    1792KiB time=00:00:09.46 bitrate=1551.8kbits/s speed=0.0309x elapsed=0:05:06.44    \nframe=  474 fps=1.5 q=41.0 size=    1792KiB time=00:00:09.46 bitrate=1551.8kbits/s speed=0.0308x elapsed=0:05:06.99    \nframe=  474 fps=1.5 q=41.0 size=    1792KiB time=00:00:09.46 bitrate=1551.8kbits/s speed=0.0308x elapsed=0:05:07.55    \nframe=  476 fps=1.5 q=46.0 size=    1792KiB time=00:00:09.50 bitrate=1545.3kbits/s speed=0.0308x elapsed=0:05:08.08    \nframe=  478 fps=1.5 q=43.0 size=    1792KiB time=00:00:09.54 bitrate=1538.8kbits/s speed=0.0309x elapsed=0:05:08.65    \nframe=  478 fps=1.5 q=43.0 size=    1792KiB time=00:00:09.54 bitrate=1538.8kbits/s speed=0.0309x elapsed=0:05:09.17    \nframe=  480 fps=1.5 q=49.0 size=    1792KiB time=00:00:09.58 bitrate=1532.4kbits/s speed=0.0309x elapsed=0:05:09.68    \nframe=  482 fps=1.6 q=29.0 size=    1792KiB time=00:00:09.62 bitrate=1526.0kbits/s speed=0.031x elapsed=0:05:10.24    \nframe=  482 fps=1.6 q=29.0 size=    1792KiB time=00:00:09.62 bitrate=1526.0kbits/s speed=0.031x elapsed=0:05:10.79    \nframe=  484 fps=1.6 q=49.0 size=    1792KiB time=00:00:09.66 bitrate=1519.7kbits/s speed=0.031x elapsed=0:05:11.35    \nframe=  486 fps=1.6 q=49.0 size=    1792KiB time=00:00:09.70 bitrate=1513.4kbits/s speed=0.0311x elapsed=0:05:11.89    \nframe=  486 fps=1.6 q=49.0 size=    1792KiB time=00:00:09.70 bitrate=1513.4kbits/s speed=0.031x elapsed=0:05:12.42    \nframe=  486 fps=1.6 q=49.0 size=    1792KiB time=00:00:09.70 bitrate=1513.4kbits/s speed=0.031x elapsed=0:05:12.93    \nframe=  490 fps=1.6 q=47.0 size=    1792KiB time=00:00:09.78 bitrate=1501.0kbits/s speed=0.0312x elapsed=0:05:13.45    \nframe=  490 fps=1.6 q=47.0 size=    1792KiB time=00:00:09.78 bitrate=1501.0kbits/s speed=0.0311x elapsed=0:05:13.96    \nframe=  490 fps=1.6 q=47.0 size=    1792KiB time=00:00:09.78 bitrate=1501.0kbits/s speed=0.0311x elapsed=0:05:14.53    \nframe=  490 fps=1.6 q=47.0 size=    1792KiB time=00:00:09.78 bitrate=1501.0kbits/s speed=0.031x elapsed=0:05:15.05    \nframe=  490 fps=1.6 q=47.0 size=    1792KiB time=00:00:09.78 bitrate=1501.0kbits/s speed=0.031x elapsed=0:05:15.60    \nframe=  494 fps=1.6 q=49.0 size=    1792KiB time=00:00:09.86 bitrate=1488.9kbits/s speed=0.0312x elapsed=0:05:16.15    \nframe=  494 fps=1.6 q=49.0 size=    1792KiB time=00:00:09.86 bitrate=1488.9kbits/s speed=0.0311x elapsed=0:05:16.66    \nframe=  496 fps=1.6 q=49.0 size=    1792KiB time=00:00:09.90 bitrate=1482.8kbits/s speed=0.0312x elapsed=0:05:17.19    \n[out#0/matroska @ 0000025f92469c40] video:3147KiB audio:0KiB subtitle:0KiB other streams:0KiB global headers:0KiB muxing overhead: 0.091797%\nframe=  500 fps=1.6 q=44.0 Lsize=    3150KiB time=00:00:09.98 bitrate=2585.4kbits/s speed=0.0314x elapsed=0:05:17.82    \n",
  "seconds": 320.0870404243469,
  "probe_out": {}
}